<svg width="25" height="24" viewBox="0 0 25 24" fill="none" xmlns="http://www.w3.org/2000/svg">
<path d="M0.75 5.14286C0.75 3.77889 1.29184 2.47078 2.25631 1.50631C3.22078 0.541835 4.52889 0 5.89286 0H19.6071C20.9711 0 22.2792 0.541835 23.2437 1.50631C24.2082 2.47078 24.75 3.77889 24.75 5.14286V18.8571C24.75 20.2211 24.2082 21.5292 23.2437 22.4937C22.2792 23.4582 20.9711 24 19.6071 24H5.89286C4.52889 24 3.22078 23.4582 2.25631 22.4937C1.29184 21.5292 0.75 20.2211 0.75 18.8571V5.14286ZM5.89286 1.71429C4.98354 1.71429 4.11147 2.07551 3.46849 2.71849C2.82551 3.36147 2.46429 4.23354 2.46429 5.14286V6.95657L11.8929 6.86571V1.71429H5.89286ZM13.6071 1.71429V15.4286H23.0357V5.14286C23.0357 4.23354 22.6745 3.36147 22.0315 2.71849C21.3885 2.07551 20.5165 1.71429 19.6071 1.71429H13.6071ZM23.0357 17.1429H13.6071V22.2857H19.6071C20.5165 22.2857 21.3885 21.9245 22.0315 21.2815C22.6745 20.6385 23.0357 19.7665 23.0357 18.8571V17.1429ZM11.8929 22.2857V8.58L2.46429 8.67086V18.8571C2.46429 19.7665 2.82551 20.6385 3.46849 21.2815C4.11147 21.9245 4.98354 22.2857 5.89286 22.2857H11.8929Z" fill="#A5A5A5"/>
</svg>
