<svg width="25" height="25" viewBox="0 0 25 25" fill="none" xmlns="http://www.w3.org/2000/svg">
<path d="M7.25 8.5C7.25 8.23478 7.35535 7.98043 7.54289 7.79289C7.73043 7.60535 7.98478 7.5 8.25 7.5H16.25C16.5152 7.5 16.7696 7.60535 16.9571 7.79289C17.1446 7.98043 17.25 8.23478 17.25 8.5C17.25 8.76521 17.1446 9.01957 16.9571 9.2071C16.7696 9.39464 16.5152 9.5 16.25 9.5H8.25C7.98478 9.5 7.73043 9.39464 7.54289 9.2071C7.35535 9.01957 7.25 8.76521 7.25 8.5ZM8.25 13.5H16.25C16.5152 13.5 16.7696 13.3946 16.9571 13.2071C17.1446 13.0196 17.25 12.7652 17.25 12.5C17.25 12.2348 17.1446 11.9804 16.9571 11.7929C16.7696 11.6054 16.5152 11.5 16.25 11.5H8.25C7.98478 11.5 7.73043 11.6054 7.54289 11.7929C7.35535 11.9804 7.25 12.2348 7.25 12.5C7.25 12.7652 7.35535 13.0196 7.54289 13.2071C7.73043 13.3946 7.98478 13.5 8.25 13.5ZM12.25 15.5H8.25C7.98478 15.5 7.73043 15.6053 7.54289 15.7929C7.35535 15.9804 7.25 16.2348 7.25 16.5C7.25 16.7652 7.35535 17.0196 7.54289 17.2071C7.73043 17.3946 7.98478 17.5 8.25 17.5H12.25C12.5152 17.5 12.7696 17.3946 12.9571 17.2071C13.1446 17.0196 13.25 16.7652 13.25 16.5C13.25 16.2348 13.1446 15.9804 12.9571 15.7929C12.7696 15.6053 12.5152 15.5 12.25 15.5ZM24.25 2.5V16.0862C24.2508 16.349 24.1994 16.6093 24.0988 16.852C23.9981 17.0947 23.8503 17.3149 23.6637 17.5L17.25 23.9137C17.0649 24.1003 16.8447 24.2481 16.602 24.3488C16.3593 24.4494 16.099 24.5008 15.8362 24.5H2.25C1.71957 24.5 1.21086 24.2893 0.835786 23.9142C0.460714 23.5391 0.25 23.0304 0.25 22.5V2.5C0.25 1.96957 0.460714 1.46086 0.835786 1.08579C1.21086 0.710714 1.71957 0.5 2.25 0.5H22.25C22.7804 0.5 23.2891 0.710714 23.6642 1.08579C24.0393 1.46086 24.25 1.96957 24.25 2.5ZM2.25 22.5H15.25V16.5C15.25 16.2348 15.3553 15.9804 15.5429 15.7929C15.7304 15.6053 15.9848 15.5 16.25 15.5H22.25V2.5H2.25V22.5ZM17.25 17.5V21.0875L20.8362 17.5H17.25Z" fill="#FC7E2F"/>
</svg>
