<svg width="26" height="26" viewBox="0 0 26 26" fill="none" xmlns="http://www.w3.org/2000/svg">
<path d="M3.37494 14.0417H4.41661V21.3333C4.41661 22.4823 5.35098 23.4167 6.49994 23.4167H18.9999C20.1489 23.4167 21.0833 22.4823 21.0833 21.3333V14.0417H22.1249C22.3309 14.0416 22.5323 13.9805 22.7035 13.866C22.8748 13.7516 23.0083 13.5889 23.0871 13.3986C23.1659 13.2083 23.1866 12.9989 23.1464 12.7968C23.1062 12.5948 23.007 12.4092 22.8614 12.2635L13.4864 2.88854C13.2911 2.69326 13.0262 2.58356 12.7499 2.58356C12.4737 2.58356 12.2088 2.69326 12.0135 2.88854L2.63848 12.2635C2.49285 12.4092 2.39367 12.5948 2.3535 12.7968C2.31333 12.9989 2.33395 13.2083 2.41278 13.3986C2.4916 13.5889 2.62508 13.7516 2.79634 13.866C2.9676 13.9805 3.16895 14.0416 3.37494 14.0417ZM10.6666 21.3333V16.125H14.8333V21.3333H10.6666ZM12.7499 5.09792L18.9999 11.3479V16.125L19.001 21.3333H16.9166V16.125C16.9166 14.976 15.9822 14.0417 14.8333 14.0417H10.6666C9.51765 14.0417 8.58327 14.976 8.58327 16.125V21.3333H6.49994V11.3479L12.7499 5.09792Z" fill="#A5A5A5"/>
</svg>
