<svg width="26" height="26" viewBox="0 0 26 26" fill="none" xmlns="http://www.w3.org/2000/svg">
<path d="M16.6353 6.75C16.6353 8.61971 15.1196 10.1354 13.2499 10.1354C11.3802 10.1354 9.8645 8.61971 9.8645 6.75C9.8645 4.88028 11.3802 3.36458 13.2499 3.36458C15.1196 3.36458 16.6353 4.88028 16.6353 6.75Z" stroke="#FC7E2F" stroke-width="1.5"/>
<path d="M19.7603 18.2083C19.7603 19.3287 19.1259 20.4169 17.9518 21.2554C16.7793 22.093 15.1194 22.6354 13.2499 22.6354C11.3804 22.6354 9.72055 22.093 8.54802 21.2554C7.37399 20.4169 6.7395 19.3287 6.7395 18.2083C6.7395 17.0879 7.37399 15.9998 8.54802 15.1612C9.72055 14.3236 11.3804 13.7812 13.2499 13.7812C15.1194 13.7812 16.7793 14.3236 17.9518 15.1612C19.1259 15.9998 19.7603 17.0879 19.7603 18.2083Z" stroke="#FC7E2F" stroke-width="1.5"/>
</svg>
