<svg width="22" height="33" viewBox="0 0 22 33" fill="none" xmlns="http://www.w3.org/2000/svg">
<path d="M0.841278 1.01322C0.302608 1.47001 0 2.08945 0 2.73534C0 3.38124 0.302608 4.00068 0.841278 4.45747L15.0644 16.5148L0.841278 28.572C0.317874 29.0314 0.0282557 29.6467 0.0348024 30.2854C0.0413491 30.9241 0.343537 31.535 0.876279 31.9866C1.40902 32.4382 2.12969 32.6944 2.88307 32.7C3.63646 32.7055 4.36227 32.46 4.90419 32.0163L21.1587 18.2369C21.6974 17.7801 22 17.1606 22 16.5148C22 15.8689 21.6974 15.2494 21.1587 14.7926L4.90419 1.01322C4.36536 0.556578 3.63464 0.300049 2.87273 0.300049C2.11083 0.300049 1.38011 0.556578 0.841278 1.01322Z" fill="#6F4E37" fill-opacity="0.4"/>
</svg>
