<svg width="363" height="184" viewBox="0 0 363 184" fill="none" xmlns="http://www.w3.org/2000/svg">
<g filter="url(#filter0_d_843_4765)">
<mask id="path-1-inside-1_843_4765" fill="white">
<path fill-rule="evenodd" clip-rule="evenodd" d="M337 10C345.837 10 353 17.1635 353 26V132.851C353 141.469 346.186 148.496 337.652 148.838L335.705 170.738C335.537 172.635 333.605 173.809 332.576 172.639L312.121 149.383C311.985 149.227 311.881 149.047 311.808 148.851H26C17.1635 148.851 10 141.688 10 132.851V26C10 17.1634 17.1635 10 26 10H337Z"/>
</mask>
<path fill-rule="evenodd" clip-rule="evenodd" d="M337 10C345.837 10 353 17.1635 353 26V132.851C353 141.469 346.186 148.496 337.652 148.838L335.705 170.738C335.537 172.635 333.605 173.809 332.576 172.639L312.121 149.383C311.985 149.227 311.881 149.047 311.808 148.851H26C17.1635 148.851 10 141.688 10 132.851V26C10 17.1634 17.1635 10 26 10H337Z" fill="white"/>
<path d="M337.652 148.838L335.66 148.661L335.815 146.91L337.572 146.84L337.652 148.838ZM335.705 170.738L333.713 170.561L333.713 170.561L335.705 170.738ZM332.576 172.639L331.075 173.96L331.075 173.96L332.576 172.639ZM312.121 149.383L310.62 150.704L310.62 150.704L312.121 149.383ZM311.808 148.851V146.851H313.197L313.682 148.153L311.808 148.851ZM351 26C351 18.268 344.732 12 337 12V8C346.941 8 355 16.0589 355 26H351ZM351 132.851V26H355V132.851H351ZM337.572 146.84C345.038 146.541 351 140.392 351 132.851H355C355 142.547 347.334 150.452 337.732 150.837L337.572 146.84ZM333.713 170.561L335.66 148.661L339.644 149.015L337.698 170.915L333.713 170.561ZM334.078 171.318C334.047 171.283 333.988 171.23 333.897 171.184C333.807 171.139 333.712 171.115 333.627 171.108C333.461 171.096 333.393 171.149 333.425 171.13C333.502 171.083 333.684 170.89 333.713 170.561L337.698 170.915C337.558 172.483 336.69 173.826 335.502 174.548C334.277 175.292 332.397 175.463 331.075 173.96L334.078 171.318ZM313.623 148.062L334.078 171.318L331.075 173.96L310.62 150.704L313.623 148.062ZM313.682 148.153C313.678 148.142 313.662 148.106 313.623 148.062L310.62 150.704C310.307 150.348 310.083 149.952 309.933 149.549L313.682 148.153ZM26 146.851H311.808V150.851H26V146.851ZM12 132.851C12 140.583 18.2681 146.851 26 146.851V150.851C16.0589 150.851 8.00003 142.792 8.00003 132.851H12ZM12 26V132.851H8.00003V26H12ZM26 12C18.2681 12 12 18.268 12 26H8.00003C8.00003 16.0589 16.0589 8 26 8V12ZM337 12H26V8H337V12Z" fill="#EAEAEA" mask="url(#path-1-inside-1_843_4765)"/>
</g>
<defs>
<filter id="filter0_d_843_4765" x="0" y="0" width="363" height="183.106" filterUnits="userSpaceOnUse" color-interpolation-filters="sRGB">
<feFlood flood-opacity="0" result="BackgroundImageFix"/>
<feColorMatrix in="SourceAlpha" type="matrix" values="0 0 0 0 0 0 0 0 0 0 0 0 0 0 0 0 0 0 127 0" result="hardAlpha"/>
<feOffset/>
<feGaussianBlur stdDeviation="5"/>
<feComposite in2="hardAlpha" operator="out"/>
<feColorMatrix type="matrix" values="0 0 0 0 0 0 0 0 0 0 0 0 0 0 0 0 0 0 0.1 0"/>
<feBlend mode="normal" in2="BackgroundImageFix" result="effect1_dropShadow_843_4765"/>
<feBlend mode="normal" in="SourceGraphic" in2="effect1_dropShadow_843_4765" result="shape"/>
</filter>
</defs>
</svg>
