<svg width="121" height="47" viewBox="0 0 121 47" fill="none" xmlns="http://www.w3.org/2000/svg">
<g filter="url(#filter0_d_1441_5368)">
<rect x="4" y="2" width="113" height="39" rx="5" fill="white"/>
<rect x="4.5" y="2.5" width="112" height="38" rx="4.5" stroke="#DFDFDF"/>
</g>
<path d="M45.216 14.587H47.052V16.015C47.052 19.041 45.692 21.693 42.649 22.696L41.51 20.894C44.128 20.061 45.216 18.055 45.216 16.015V14.587ZM45.675 14.587H47.494V16.219C47.494 18.106 48.548 19.942 51.03 20.724L49.925 22.492C47.001 21.557 45.675 19.058 45.675 16.219V14.587ZM51.812 13.771H54.073V23.274H51.812V13.771ZM53.444 17.596H56.164V19.466H53.444V17.596ZM43.567 23.937H54.073V29.513H51.812V25.756H43.567V23.937ZM68.6917 13.771H70.8337V29.513H68.6917V13.771ZM63.5067 19.143H66.1077V20.979H63.5067V19.143ZM65.5127 14.026H67.6207V28.799H65.5127V14.026ZM60.1067 16.338H61.8067V17.953C61.8067 21.489 60.8377 25.008 58.3387 26.572L56.9957 24.906C59.3077 23.461 60.1067 20.639 60.1067 17.953V16.338ZM60.6167 16.338H62.2997V17.953C62.2997 20.571 63.0817 23.223 65.3597 24.549L64.0337 26.198C61.5347 24.719 60.6167 21.421 60.6167 17.953V16.338ZM57.5907 15.352H64.6117V17.171H57.5907V15.352ZM83.0553 13.771H85.2993V29.513H83.0553V13.771ZM84.7893 19.908H87.5773V21.795H84.7893V19.908ZM72.8893 16.1H82.0523V17.902H72.8893V16.1ZM77.4963 18.786C79.7913 18.786 81.4913 20.35 81.4913 22.543C81.4913 24.736 79.7913 26.3 77.4963 26.3C75.2013 26.3 73.5013 24.736 73.5013 22.543C73.5013 20.35 75.2013 18.786 77.4963 18.786ZM77.4963 20.622C76.4253 20.622 75.6603 21.336 75.6603 22.543C75.6603 23.75 76.4253 24.464 77.4963 24.464C78.5673 24.464 79.3323 23.75 79.3323 22.543C79.3323 21.336 78.5673 20.622 77.4963 20.622ZM76.3573 14.026H78.6183V16.78H76.3573V14.026ZM99.442 13.771H101.72V29.513H99.442V13.771ZM94.801 15.403H97.045C97.045 20.214 95.413 24.158 89.82 26.861L88.647 25.059C93.169 22.883 94.801 20.027 94.801 15.811V15.403ZM89.48 15.403H95.872V17.188H89.48V15.403Z" fill="#FC7E2F"/>
<path d="M18.875 12.5C18.875 11.9033 19.1121 11.331 19.534 10.909C19.956 10.4871 20.5283 10.25 21.125 10.25H27.875C28.4717 10.25 29.044 10.4871 29.466 10.909C29.8879 11.331 30.125 11.9033 30.125 12.5V14.75H34.625C34.9234 14.75 35.2095 14.8685 35.4205 15.0795C35.6315 15.2905 35.75 15.5766 35.75 15.875C35.75 16.1734 35.6315 16.4595 35.4205 16.6705C35.2095 16.8815 34.9234 17 34.625 17H33.4224L32.447 30.6597C32.4066 31.2274 32.1526 31.7587 31.7361 32.1465C31.3197 32.5344 30.7717 32.75 30.2026 32.75H18.7962C18.2272 32.75 17.6792 32.5344 17.2627 32.1465C16.8463 31.7587 16.5923 31.2274 16.5519 30.6597L15.5787 17H14.375C14.0766 17 13.7905 16.8815 13.5795 16.6705C13.3685 16.4595 13.25 16.1734 13.25 15.875C13.25 15.5766 13.3685 15.2905 13.5795 15.0795C13.7905 14.8685 14.0766 14.75 14.375 14.75H18.875V12.5ZM21.125 14.75H27.875V12.5H21.125V14.75ZM17.8332 17L18.7974 30.5H30.2037L31.1679 17H17.8332ZM22.25 19.25C22.5484 19.25 22.8345 19.3685 23.0455 19.5795C23.2565 19.7905 23.375 20.0766 23.375 20.375V27.125C23.375 27.4234 23.2565 27.7095 23.0455 27.9205C22.8345 28.1315 22.5484 28.25 22.25 28.25C21.9516 28.25 21.6655 28.1315 21.4545 27.9205C21.2435 27.7095 21.125 27.4234 21.125 27.125V20.375C21.125 20.0766 21.2435 19.7905 21.4545 19.5795C21.6655 19.3685 21.9516 19.25 22.25 19.25ZM26.75 19.25C27.0484 19.25 27.3345 19.3685 27.5455 19.5795C27.7565 19.7905 27.875 20.0766 27.875 20.375V27.125C27.875 27.4234 27.7565 27.7095 27.5455 27.9205C27.3345 28.1315 27.0484 28.25 26.75 28.25C26.4516 28.25 26.1655 28.1315 25.9545 27.9205C25.7435 27.7095 25.625 27.4234 25.625 27.125V20.375C25.625 20.0766 25.7435 19.7905 25.9545 19.5795C26.1655 19.3685 26.4516 19.25 26.75 19.25Z" fill="#FF9A62"/>
<defs>
<filter id="filter0_d_1441_5368" x="0" y="0" width="121" height="47" filterUnits="userSpaceOnUse" color-interpolation-filters="sRGB">
<feFlood flood-opacity="0" result="BackgroundImageFix"/>
<feColorMatrix in="SourceAlpha" type="matrix" values="0 0 0 0 0 0 0 0 0 0 0 0 0 0 0 0 0 0 127 0" result="hardAlpha"/>
<feOffset dy="2"/>
<feGaussianBlur stdDeviation="2"/>
<feComposite in2="hardAlpha" operator="out"/>
<feColorMatrix type="matrix" values="0 0 0 0 0 0 0 0 0 0 0 0 0 0 0 0 0 0 0.25 0"/>
<feBlend mode="normal" in2="BackgroundImageFix" result="effect1_dropShadow_1441_5368"/>
<feBlend mode="normal" in="SourceGraphic" in2="effect1_dropShadow_1441_5368" result="shape"/>
</filter>
</defs>
</svg>
