<svg width="5" height="24" viewBox="0 0 5 24" fill="none" xmlns="http://www.w3.org/2000/svg">
<path d="M5 2.97157C5 1.58431 3.88071 0.459717 2.5 0.459717C1.11929 0.459717 0 1.58431 0 2.97157C0 4.35882 1.11929 5.48341 2.5 5.48341C3.88071 5.48341 5 4.35882 5 2.97157Z" fill="black" fill-opacity="0.3"/>
<path d="M5 11.7631C5 10.3758 3.88071 9.25122 2.5 9.25122C1.11929 9.25122 0 10.3758 0 11.7631C0 13.1503 1.11929 14.2749 2.5 14.2749C3.88071 14.2749 5 13.1503 5 11.7631Z" fill="black" fill-opacity="0.3"/>
<path d="M5 20.5546C5 19.1673 3.88071 18.0427 2.5 18.0427C1.11929 18.0427 0 19.1673 0 20.5546C0 21.9418 1.11929 23.0664 2.5 23.0664C3.88071 23.0664 5 21.9418 5 20.5546Z" fill="black" fill-opacity="0.3"/>
</svg>
