<svg width="216" height="28" viewBox="0 0 216 28" fill="none" xmlns="http://www.w3.org/2000/svg">
<path d="M16.4055 2.636H17.2095V4.4C17.2095 6.692 15.8295 8.996 14.1015 9.848L13.5255 9.056C15.0975 8.312 16.4055 6.272 16.4055 4.4V2.636ZM16.5975 2.636H17.4015V4.4C17.4015 6.236 18.7095 8.108 20.3055 8.792L19.7415 9.584C17.9895 8.768 16.5975 6.656 16.5975 4.4V2.636ZM13.8855 2.192H19.9455V3.032H13.8855V2.192ZM21.4095 1.088H22.4055V11.936H21.4095V1.088ZM24.5646 6.524H34.4046V7.34H24.5646V6.524ZM28.9686 4.88H29.9526V6.896H28.9686V4.88ZM28.9566 1.256H29.8206V1.736C29.8206 3.692 27.7446 5.084 25.5366 5.444L25.1526 4.652C27.0966 4.388 28.9566 3.188 28.9566 1.736V1.256ZM29.1126 1.256H29.9646V1.736C29.9646 3.188 31.8366 4.388 33.7686 4.652L33.3966 5.444C31.2006 5.072 29.1126 3.692 29.1126 1.736V1.256ZM25.6566 8.396H33.1566V11.936H32.1606V9.2H25.6566V8.396ZM38.3756 2.192H39.1916V3.068C39.1916 5.048 37.9676 6.74 36.1556 7.412L35.6396 6.62C37.2596 6.044 38.3756 4.604 38.3756 3.068V2.192ZM38.5676 2.192H39.3716V3.068C39.3716 4.46 40.4276 5.816 41.9996 6.368L41.4956 7.16C39.7316 6.512 38.5676 4.88 38.5676 3.068V2.192ZM41.4116 3.908H43.8236V4.736H41.4116V3.908ZM35.9516 1.832H41.7476V2.636H35.9516V1.832ZM37.2956 8.168H44.5316V11.936H43.5356V8.984H37.2956V8.168ZM43.5356 1.088H44.5316V7.58H43.5356V1.088ZM51.5507 1.772C53.8067 1.772 55.4867 2.972 55.4867 4.772C55.4867 6.584 53.8067 7.772 51.5507 7.772C49.2947 7.772 47.6027 6.584 47.6027 4.772C47.6027 2.972 49.2947 1.772 51.5507 1.772ZM51.5507 2.588C49.8347 2.588 48.5627 3.464 48.5627 4.772C48.5627 6.068 49.8347 6.956 51.5507 6.956C53.2667 6.956 54.5387 6.068 54.5387 4.772C54.5387 3.464 53.2667 2.588 51.5507 2.588ZM46.6547 9.668H56.4827V10.508H46.6547V9.668ZM57.6938 9.776H67.5218V10.604H57.6938V9.776ZM62.0858 7.448H63.0818V10.124H62.0858V7.448ZM58.8818 1.892H66.3098V5.18H59.9018V7.352H58.9178V4.376H65.3258V2.696H58.8818V1.892ZM58.9178 6.932H66.5618V7.748H58.9178V6.932ZM79.347 1.076H80.343V11.948H79.347V1.076ZM74.619 1.916C76.227 1.916 77.379 3.392 77.379 5.696C77.379 8.012 76.227 9.488 74.619 9.488C73.023 9.488 71.871 8.012 71.871 5.696C71.871 3.392 73.023 1.916 74.619 1.916ZM74.619 2.816C73.563 2.816 72.819 3.944 72.819 5.696C72.819 7.46 73.563 8.612 74.619 8.612C75.687 8.612 76.419 7.46 76.419 5.696C76.419 3.944 75.687 2.816 74.619 2.816ZM83.1261 2.144H88.1181V9.212H83.1261V2.144ZM87.1461 2.948H84.0981V8.408H87.1461V2.948ZM90.3861 1.076H91.3821V11.948H90.3861V1.076ZM96.4211 2.636H97.2251V4.4C97.2251 6.692 95.8451 8.996 94.1171 9.848L93.5411 9.056C95.1131 8.312 96.4211 6.272 96.4211 4.4V2.636ZM96.6131 2.636H97.4171V4.4C97.4171 6.236 98.7251 8.108 100.321 8.792L99.7571 9.584C98.0051 8.768 96.6131 6.656 96.6131 4.4V2.636ZM93.9011 2.192H99.9611V3.032H93.9011V2.192ZM101.425 1.088H102.421V11.936H101.425V1.088ZM115.218 1.1H116.226V9.02H115.218V1.1ZM109.254 10.88H116.55V11.696H109.254V10.88ZM109.254 8.204H110.238V11.156H109.254V8.204ZM110.406 1.844C112.026 1.844 113.226 2.948 113.226 4.52C113.226 6.08 112.026 7.196 110.406 7.196C108.786 7.196 107.574 6.08 107.574 4.52C107.574 2.948 108.786 1.844 110.406 1.844ZM110.406 2.708C109.35 2.708 108.546 3.452 108.546 4.52C108.546 5.576 109.35 6.32 110.406 6.32C111.462 6.32 112.266 5.576 112.266 4.52C112.266 3.452 111.462 2.708 110.406 2.708ZM121.193 1.604H122.021V2.66C122.021 4.712 120.797 6.476 118.961 7.172L118.457 6.38C120.101 5.78 121.193 4.28 121.193 2.66V1.604ZM121.373 1.604H122.189V2.66C122.189 4.22 123.305 5.624 124.913 6.188L124.409 6.968C122.597 6.308 121.373 4.652 121.373 2.66V1.604ZM120.017 8.168H127.265V11.936H126.257V8.984H120.017V8.168ZM126.257 1.088H127.265V7.616H126.257V1.088ZM133.805 5.3H135.857V6.128H133.805V5.3ZM137.669 1.088H138.629V11.936H137.669V1.088ZM135.521 1.316H136.469V11.396H135.521V1.316ZM131.849 1.988C133.253 1.988 134.165 3.44 134.165 5.768C134.165 8.096 133.253 9.548 131.849 9.548C130.445 9.548 129.545 8.096 129.545 5.768C129.545 3.44 130.445 1.988 131.849 1.988ZM131.849 2.912C130.997 2.912 130.457 4.016 130.457 5.768C130.457 7.52 130.997 8.624 131.849 8.624C132.713 8.624 133.253 7.52 133.253 5.768C133.253 4.016 132.713 2.912 131.849 2.912ZM151.078 1.088H152.074V6.704H151.078V1.088ZM145.066 7.256H152.086V9.86H146.062V11.348H145.09V9.116H151.102V8.036H145.066V7.256ZM145.09 11.024H152.446V11.816H145.09V11.024ZM146.014 1.4H146.842V2.228C146.842 4.232 145.594 5.936 143.758 6.608L143.266 5.816C144.898 5.24 146.014 3.8 146.014 2.228V1.4ZM146.194 1.4H147.01V2.228C147.01 3.728 148.15 5.084 149.758 5.612L149.266 6.392C147.442 5.768 146.194 4.172 146.194 2.228V1.4ZM162.489 1.088H163.449V11.936H162.489V1.088ZM160.773 5.444H162.849V6.272H160.773V5.444ZM160.137 1.328H161.073V11.384H160.137V1.328ZM154.329 2.444H159.345V3.26H154.329V2.444ZM154.233 9.272L154.113 8.432C155.541 8.432 157.893 8.384 159.549 8.168L159.621 8.9C157.905 9.224 155.649 9.272 154.233 9.272ZM155.253 2.972H156.165V8.648H155.253V2.972ZM157.509 2.972H158.421V8.648H157.509V2.972ZM172.688 1.052H173.684V7.04H172.688V1.052ZM173.264 3.656H175.292V4.496H173.264V3.656ZM166.796 7.592H173.684V10.016H167.804V11.336H166.82V9.296H172.712V8.348H166.796V7.592ZM166.82 11.048H174.08V11.816H166.82V11.048ZM165.296 2.06H171.704V2.84H165.296V2.06ZM168.5 3.32C170.06 3.32 171.092 4.004 171.092 5.108C171.092 6.2 170.06 6.872 168.5 6.872C166.916 6.872 165.896 6.2 165.896 5.108C165.896 4.004 166.916 3.32 168.5 3.32ZM168.5 4.052C167.492 4.052 166.844 4.46 166.844 5.108C166.844 5.744 167.492 6.152 168.5 6.152C169.496 6.152 170.144 5.744 170.144 5.108C170.144 4.46 169.496 4.052 168.5 4.052ZM167.996 0.968H168.992V2.6H167.996V0.968ZM184.237 3.08H187.141V3.896H184.237V3.08ZM184.141 5.336H187.069V6.152H184.141V5.336ZM186.973 1.088H187.969V7.592H186.973V1.088ZM183.577 1.904H184.645C184.645 4.7 182.713 6.656 179.593 7.592L179.185 6.788C181.957 5.984 183.577 4.388 183.577 2.336V1.904ZM179.749 1.904H184.261V2.72H179.749V1.904ZM184.441 7.712C186.637 7.712 188.029 8.492 188.029 9.8C188.029 11.108 186.637 11.888 184.441 11.888C182.245 11.888 180.853 11.108 180.853 9.8C180.853 8.492 182.245 7.712 184.441 7.712ZM184.441 8.492C182.857 8.492 181.837 8.984 181.837 9.8C181.837 10.616 182.857 11.096 184.441 11.096C186.037 11.096 187.057 10.616 187.057 9.8C187.057 8.984 186.037 8.492 184.441 8.492ZM190.08 7.304H199.92V8.12H190.08V7.304ZM194.472 7.808H195.456V11.936H194.472V7.808ZM194.976 1.52C197.244 1.52 198.768 2.444 198.768 3.896C198.768 5.348 197.244 6.272 194.976 6.272C192.72 6.272 191.184 5.348 191.184 3.896C191.184 2.444 192.72 1.52 194.976 1.52ZM194.976 2.324C193.32 2.324 192.192 2.936 192.192 3.896C192.192 4.856 193.32 5.468 194.976 5.468C196.632 5.468 197.748 4.856 197.748 3.896C197.748 2.936 196.632 2.324 194.976 2.324ZM201.383 9.44H202.403L201.731 12.536L200.975 12.392L201.383 9.44ZM8.39489 15.076H9.40289V25.936H8.39489V15.076ZM9.12689 19.48H11.1309V20.308H9.12689V19.48ZM5.62289 16.252H6.59489C6.59489 19.336 5.17889 22.12 1.67489 23.884L1.12289 23.116C4.12289 21.592 5.62289 19.276 5.62289 16.408V16.252ZM1.62689 16.252H6.13889V17.068H1.62689V16.252ZM19.626 15.088H20.61V25.936H19.626V15.088ZM20.298 19.552H22.23V20.392H20.298V19.552ZM14.43 16.252H15.342C15.342 18.868 14.79 21.4 12.846 23.5L12.042 22.936C13.83 21.076 14.43 18.82 14.43 16.36V16.252ZM12.39 16.252H14.802V17.08H12.39V16.252ZM17.382 16.252H18.306C18.306 18.88 17.934 21.856 15.942 24.22L15.138 23.668C16.974 21.544 17.382 18.856 17.382 16.348V16.252ZM15.69 16.252H17.79V17.08H15.69V16.252ZM23.129 20.584H32.969V21.4H23.129V20.584ZM27.617 21.1H28.625V23.596H27.617V21.1ZM24.377 24.868H31.877V25.696H24.377V24.868ZM24.377 22.528H25.373V25.096H24.377V22.528ZM28.037 15.352C30.329 15.352 31.841 16.192 31.841 17.536C31.841 18.88 30.329 19.72 28.037 19.72C25.733 19.72 24.233 18.88 24.233 17.536C24.233 16.192 25.733 15.352 28.037 15.352ZM28.037 16.168C26.381 16.168 25.289 16.696 25.289 17.536C25.289 18.388 26.381 18.904 28.037 18.904C29.693 18.904 30.785 18.388 30.785 17.536C30.785 16.696 29.693 16.168 28.037 16.168ZM36.9223 20.428H46.7263V21.244H36.9223V20.428ZM41.3263 18.688H42.3103V20.764H41.3263V18.688ZM38.1583 18.376H45.5863V19.192H38.1583V18.376ZM38.1583 15.58H45.5023V16.384H39.1423V18.856H38.1583V15.58ZM41.8063 22.024C44.1223 22.024 45.5263 22.732 45.5263 23.968C45.5263 25.228 44.1223 25.924 41.8063 25.924C39.4903 25.924 38.0863 25.228 38.0863 23.968C38.0863 22.732 39.4903 22.024 41.8063 22.024ZM41.8063 22.792C40.1143 22.792 39.0943 23.224 39.0943 23.968C39.0943 24.724 40.1143 25.144 41.8063 25.144C43.5103 25.144 44.5183 24.724 44.5183 23.968C44.5183 23.224 43.5103 22.792 41.8063 22.792ZM52.3533 20.212H53.3373V21.88H52.3533V20.212ZM47.9493 19.66H57.7533V20.464H47.9493V19.66ZM49.2213 15.448H56.4813V18.748H49.2213V15.448ZM55.5093 16.24H50.2053V17.956H55.5093V16.24ZM49.1373 21.52H56.5053V23.956H50.1453V25.276H49.1613V23.236H55.5213V22.288H49.1373V21.52ZM49.1613 25.036H56.8293V25.816H49.1613V25.036ZM66.8666 16.852H69.9266V17.668H66.8666V16.852ZM66.8666 19.072H69.9266V19.9H66.8666V19.072ZM62.2706 15.748H63.2546V17.476H66.1946V15.748H67.1666V20.86H62.2706V15.748ZM63.2546 18.28V20.056H66.1946V18.28H63.2546ZM69.6626 15.088H70.6586V21.652H69.6626V15.088ZM67.0946 21.868C69.3266 21.868 70.7066 22.624 70.7066 23.896C70.7066 25.18 69.3266 25.912 67.0946 25.912C64.8506 25.912 63.4706 25.18 63.4706 23.896C63.4706 22.624 64.8506 21.868 67.0946 21.868ZM67.0946 22.66C65.4626 22.66 64.4666 23.104 64.4666 23.896C64.4666 24.676 65.4626 25.132 67.0946 25.132C68.7266 25.132 69.7226 24.676 69.7226 23.896C69.7226 23.104 68.7266 22.66 67.0946 22.66ZM75.8536 20.548H76.8496V22.96H75.8536V20.548ZM80.6656 15.088H81.6616V23.344H80.6656V15.088ZM74.2576 24.88H81.9256V25.696H74.2576V24.88ZM74.2576 22.54H75.2536V25.108H74.2576V22.54ZM72.8536 20.92L72.7216 20.104C74.7256 20.104 77.4136 20.08 79.7176 19.78L79.7896 20.512C77.4496 20.884 74.8216 20.92 72.8536 20.92ZM78.4576 21.496H80.9176V22.228H78.4576V21.496ZM76.2496 15.532C77.8336 15.532 78.9136 16.276 78.9136 17.416C78.9136 18.568 77.8336 19.312 76.2496 19.312C74.6536 19.312 73.5736 18.568 73.5736 17.416C73.5736 16.276 74.6536 15.532 76.2496 15.532ZM76.2496 16.276C75.2296 16.276 74.5216 16.72 74.5216 17.416C74.5216 18.112 75.2296 18.556 76.2496 18.556C77.2576 18.556 77.9656 18.112 77.9656 17.416C77.9656 16.72 77.2576 16.276 76.2496 16.276ZM88.2127 19.3H90.2647V20.128H88.2127V19.3ZM92.0767 15.088H93.0367V25.936H92.0767V15.088ZM89.9287 15.316H90.8767V25.396H89.9287V15.316ZM86.2567 15.988C87.6607 15.988 88.5727 17.44 88.5727 19.768C88.5727 22.096 87.6607 23.548 86.2567 23.548C84.8527 23.548 83.9527 22.096 83.9527 19.768C83.9527 17.44 84.8527 15.988 86.2567 15.988ZM86.2567 16.912C85.4047 16.912 84.8647 18.016 84.8647 19.768C84.8647 21.52 85.4047 22.624 86.2567 22.624C87.1207 22.624 87.6607 21.52 87.6607 19.768C87.6607 18.016 87.1207 16.912 86.2567 16.912ZM102.558 21.892C104.766 21.892 106.122 22.636 106.122 23.908C106.122 25.18 104.766 25.924 102.558 25.924C100.35 25.924 98.994 25.18 98.994 23.908C98.994 22.636 100.35 21.892 102.558 21.892ZM102.558 22.696C100.95 22.696 99.966 23.14 99.966 23.908C99.966 24.688 100.95 25.132 102.558 25.132C104.166 25.132 105.15 24.688 105.15 23.908C105.15 23.14 104.166 22.696 102.558 22.696ZM105.018 15.088H106.014V21.604H105.018V15.088ZM105.738 17.812H107.622V18.652H105.738V17.812ZM98.046 15.772H99.03V17.392H102.09V15.772H103.062V20.776H98.046V15.772ZM99.03 18.184V19.972H102.09V18.184H99.03ZM108.629 20.632H118.457V21.448H108.629V20.632ZM113.117 21.136H114.113V23.632H113.117V21.136ZM109.889 15.592H117.185V19.408H109.889V15.592ZM116.201 16.396H110.861V18.604H116.201V16.396ZM109.877 24.88H117.365V25.696H109.877V24.88ZM109.877 22.588H110.861V25.168H109.877V22.588ZM127.024 15.088H128.02V25.936H127.024V15.088ZM127.78 19.54H129.796V20.38H127.78V19.54ZM119.62 16.816H126.016V17.632H119.62V16.816ZM122.86 18.532C124.396 18.532 125.5 19.564 125.5 21.028C125.5 22.492 124.396 23.524 122.86 23.524C121.336 23.524 120.22 22.492 120.22 21.028C120.22 19.564 121.336 18.532 122.86 18.532ZM122.86 19.36C121.876 19.36 121.168 20.044 121.168 21.028C121.168 22 121.876 22.696 122.86 22.696C123.844 22.696 124.552 22 124.552 21.028C124.552 20.044 123.844 19.36 122.86 19.36ZM122.344 15.22H123.34V17.188H122.344V15.22ZM132.039 18.34H139.407V19.156H132.039V18.34ZM130.707 20.608H140.547V21.424H130.707V20.608ZM132.039 15.484H133.023V18.748H132.039V15.484ZM131.967 24.856H139.467V25.672H131.967V24.856ZM131.967 22.504H132.951V25.072H131.967V22.504ZM152.42 15.088H153.416V20.644H152.42V15.088ZM150.068 17.692H152.576V18.496H150.068V17.692ZM148.94 15.616H149.984C149.984 18.316 148.112 20.08 145.004 20.872L144.656 20.068C147.404 19.396 148.94 17.968 148.94 16.06V15.616ZM145.232 15.616H149.744V16.42H145.232V15.616ZM146.432 21.112H153.416V23.788H147.452V25.504H146.468V23.02H152.432V21.916H146.432V21.112ZM146.468 25.036H153.776V25.828H146.468V25.036ZM162.686 21.988H163.67V25.948H162.686V21.988ZM158.282 21.64H168.086V22.468H158.282V21.64ZM162.674 16.948H163.55V17.224C163.55 19.096 161.522 20.476 159.242 20.824L158.894 20.032C160.85 19.768 162.674 18.58 162.674 17.224V16.948ZM162.806 16.948H163.67V17.224C163.67 18.568 165.506 19.768 167.45 20.032L167.09 20.824C164.822 20.488 162.806 19.072 162.806 17.224V16.948ZM159.23 16.42H167.138V17.236H159.23V16.42ZM162.686 15.088H163.67V16.708H162.686V15.088ZM172.021 17.128H172.837V17.668C172.837 19.624 171.649 21.232 169.837 21.868L169.345 21.088C170.953 20.536 172.021 19.192 172.021 17.668V17.128ZM172.189 17.128H173.017V17.668C173.017 19.108 174.121 20.38 175.729 20.884L175.237 21.676C173.425 21.076 172.189 19.54 172.189 17.668V17.128ZM169.621 16.54H175.405V17.344H169.621V16.54ZM172.021 15.16H173.017V16.84H172.021V15.16ZM175.045 18.424H177.781V19.252H175.045V18.424ZM177.241 15.1H178.237V23.188H177.241V15.1ZM171.313 24.88H178.537V25.696H171.313V24.88ZM171.313 22.468H172.309V25.324H171.313V22.468ZM181.596 20.284H189.048V21.1H181.596V20.284ZM180.36 23.644H190.188V24.472H180.36V23.644ZM181.596 16.084H188.94V16.912H182.592V20.644H181.596V16.084ZM199.319 15.076H200.315V25.948H199.319V15.076ZM197.183 17.56H199.583V18.376H197.183V17.56ZM191.795 22.588H192.599C194.279 22.588 195.659 22.54 197.315 22.276L197.411 23.104C195.707 23.368 194.315 23.428 192.599 23.428H191.795V22.588ZM191.771 16.06H196.511V19.948H192.779V22.78H191.795V19.132H195.527V16.888H191.771V16.06ZM197.111 20.524H199.511V21.34H197.111V20.524ZM204.838 20.668H205.822V23.92H204.838V20.668ZM208.846 20.668H209.842V23.92H208.846V20.668ZM202.438 23.728H212.266V24.556H202.438V23.728ZM207.334 15.772C209.626 15.772 211.27 16.864 211.27 18.568C211.27 20.26 209.626 21.352 207.334 21.352C205.03 21.352 203.386 20.26 203.386 18.568C203.386 16.864 205.03 15.772 207.334 15.772ZM207.334 16.564C205.594 16.564 204.346 17.356 204.346 18.568C204.346 19.768 205.594 20.56 207.334 20.56C209.074 20.56 210.31 19.768 210.31 18.568C210.31 17.356 209.074 16.564 207.334 16.564ZM213.489 24.292C213.489 24.1 213.557 23.936 213.693 23.8C213.829 23.656 213.997 23.584 214.197 23.584C214.405 23.584 214.581 23.656 214.725 23.8C214.869 23.936 214.941 24.1 214.941 24.292C214.941 24.492 214.869 24.66 214.725 24.796C214.581 24.932 214.405 25 214.197 25C213.997 25 213.829 24.932 213.693 24.796C213.557 24.66 213.489 24.492 213.489 24.292Z" fill="#8D8A8A"/>
</svg>
