<svg width="25" height="24" viewBox="0 0 25 24" fill="none" xmlns="http://www.w3.org/2000/svg">
<path d="M7.66675 8C7.66675 7.73478 7.7721 7.48043 7.95964 7.29289C8.14717 7.10535 8.40153 7 8.66674 7H16.6667C16.932 7 17.1863 7.10535 17.3738 7.29289C17.5614 7.48043 17.6667 7.73478 17.6667 8C17.6667 8.26521 17.5614 8.51957 17.3738 8.7071C17.1863 8.89464 16.932 9 16.6667 9H8.66674C8.40153 9 8.14717 8.89464 7.95964 8.7071C7.7721 8.51957 7.66675 8.26521 7.66675 8ZM8.66674 13H16.6667C16.932 13 17.1863 12.8946 17.3738 12.7071C17.5614 12.5196 17.6667 12.2652 17.6667 12C17.6667 11.7348 17.5614 11.4804 17.3738 11.2929C17.1863 11.1054 16.932 11 16.6667 11H8.66674C8.40153 11 8.14717 11.1054 7.95964 11.2929C7.7721 11.4804 7.66675 11.7348 7.66675 12C7.66675 12.2652 7.7721 12.5196 7.95964 12.7071C8.14717 12.8946 8.40153 13 8.66674 13ZM12.6667 15H8.66674C8.40153 15 8.14717 15.1053 7.95964 15.2929C7.7721 15.4804 7.66675 15.7348 7.66675 16C7.66675 16.2652 7.7721 16.5196 7.95964 16.7071C8.14717 16.8946 8.40153 17 8.66674 17H12.6667C12.932 17 13.1863 16.8946 13.3738 16.7071C13.5614 16.5196 13.6667 16.2652 13.6667 16C13.6667 15.7348 13.5614 15.4804 13.3738 15.2929C13.1863 15.1053 12.932 15 12.6667 15ZM24.6667 2V15.5862C24.6676 15.849 24.6162 16.1093 24.5155 16.352C24.4149 16.5947 24.267 16.8149 24.0805 17L17.6667 23.4137C17.4817 23.6003 17.2614 23.7481 17.0187 23.8488C16.776 23.9494 16.5157 24.0008 16.253 24H2.66675C2.13631 24 1.62761 23.7893 1.25253 23.4142C0.877462 23.0391 0.666748 22.5304 0.666748 22V2C0.666748 1.46957 0.877462 0.960859 1.25253 0.585786C1.62761 0.210714 2.13631 0 2.66675 0H22.6667C23.1972 0 23.7059 0.210714 24.081 0.585786C24.456 0.960859 24.6667 1.46957 24.6667 2ZM2.66675 22H15.6667V16C15.6667 15.7348 15.7721 15.4804 15.9596 15.2929C16.1472 15.1053 16.4015 15 16.6667 15H22.6667V2H2.66675V22ZM17.6667 17V20.5875L21.253 17H17.6667Z" fill="#A5A5A5"/>
</svg>
