<svg width="25" height="24" viewBox="0 0 25 24" fill="none" xmlns="http://www.w3.org/2000/svg">
<path d="M3.75003 13H4.75003V20C4.75003 21.103 5.64703 22 6.75003 22H18.75C19.853 22 20.75 21.103 20.75 20V13H21.75C21.9478 13 22.1411 12.9413 22.3055 12.8314C22.4699 12.7215 22.598 12.5654 22.6737 12.3827C22.7494 12.2 22.7692 11.9989 22.7306 11.805C22.692 11.611 22.5968 11.4329 22.457 11.293L13.457 2.293C13.2695 2.10553 13.0152 2.00021 12.75 2.00021C12.4849 2.00021 12.2306 2.10553 12.043 2.293L3.04303 11.293C2.90322 11.4329 2.80802 11.611 2.76945 11.805C2.73088 11.9989 2.75068 12.2 2.82635 12.3827C2.90202 12.5654 3.03016 12.7215 3.19457 12.8314C3.35898 12.9413 3.55228 13 3.75003 13ZM10.75 20V15H14.75V20H10.75ZM12.75 4.414L18.75 10.414V15L18.751 20H16.75V15C16.75 13.897 15.853 13 14.75 13H10.75C9.64703 13 8.75003 13.897 8.75003 15V20H6.75003V10.414L12.75 4.414Z" fill="#A5A5A5"/>
</svg>
