<svg width="40" height="40" viewBox="0 0 40 40" fill="none" xmlns="http://www.w3.org/2000/svg">
<path d="M26.5 0H13.5C9.9212 0.00530078 6.4905 1.43217 3.9599 3.96784C1.42931 6.5035 0.00529018 9.94109 0 13.5271V26.4729C0.00529018 30.0589 1.42931 33.4965 3.9599 36.0322C6.4905 38.5678 9.9212 39.9947 13.5 40H26.5C30.0788 39.9947 33.5095 38.5678 36.0401 36.0322C38.5707 33.4965 39.9947 30.0589 40 26.4729V13.4469C39.9736 9.87484 38.5403 6.45779 36.012 3.93941C33.4837 1.42104 30.065 0.00518656 26.5 0ZM30.5 26.2926C30.4854 26.4571 30.4304 26.6154 30.34 26.7535C30.2743 26.8691 30.167 26.9551 30.04 26.994C29.8824 27.033 29.7176 27.033 29.56 26.994H10.46C10.1 26.994 9.8 26.994 9.72 26.8136C9.58003 26.4458 9.58003 26.0392 9.72 25.6713C9.964 25.0782 10.2773 24.5237 10.66 24.008C11.5557 22.9127 12.0996 21.5713 12.22 20.1603C12.22 16.1523 12.22 15.5912 13.86 13.6273C14.3789 13.028 15.0111 12.5376 15.72 12.1844L16.86 11.6232C17.243 11.4425 17.5735 11.1666 17.82 10.8216C18.12 10.4649 18.32 10.0381 18.4 9.57916C18.4594 9.22004 18.6436 8.89352 18.92 8.65732C19.179 8.46088 19.4952 8.35525 19.82 8.35671H20.12C20.3055 8.32744 20.4945 8.32744 20.68 8.35671C20.8467 8.41741 21.0021 8.50545 21.14 8.61724C21.292 8.73097 21.4185 8.87531 21.5115 9.04097C21.6045 9.20663 21.6619 9.38995 21.68 9.57916C21.768 9.97996 21.932 10.3607 22.16 10.7014C22.418 11.0762 22.76 11.3868 23.16 11.6032L24.26 12.1443C24.976 12.485 25.612 12.978 26.12 13.5872C27.76 15.5912 27.76 16.1723 27.76 20.1202C27.916 21.5932 28.5 22.986 29.44 24.1283C29.8333 24.6653 30.16 25.2398 30.42 25.8517C30.4819 25.9901 30.496 26.1453 30.46 26.2926H30.5ZM23.44 30.7615C23.008 31.2064 22.48 31.5471 21.9 31.7635C21.304 32.0077 20.6636 32.1237 20.02 32.1042C19.4139 32.0881 18.8138 31.9799 18.24 31.7836C17.1724 31.338 16.3093 30.5089 15.82 29.4589H24.32C24.1036 29.9505 23.7907 30.3935 23.4 30.7615H23.44Z" fill="#FF9A62"/>
</svg>
