<svg width="28" height="28" viewBox="0 0 28 28" fill="none" xmlns="http://www.w3.org/2000/svg">
<path fill-rule="evenodd" clip-rule="evenodd" d="M24.4071 0.810061C26.127 0.236772 27.7632 1.873 27.1899 3.59286L19.8 25.7627C19.1979 27.5689 16.7415 27.8095 15.8004 26.1545L11.0136 17.7363C10.8357 17.4233 10.5766 17.1642 10.2636 16.9863L1.84553 12.1995C0.190516 11.2585 0.431122 8.80206 2.23729 8.2L24.4071 0.810061ZM25.2925 2.96041C25.3447 2.80406 25.1959 2.65531 25.0396 2.70743L2.86974 10.0974C2.70555 10.1521 2.68367 10.3754 2.83413 10.461L11.2522 15.2477C11.8781 15.6036 12.3963 16.1218 12.7522 16.7477L17.539 25.1659C17.6246 25.3163 17.8479 25.2944 17.9026 25.1302L25.2925 2.96041Z" fill="#FC7E2F"/>
<path fill-rule="evenodd" clip-rule="evenodd" d="M11.1549 15.9451C10.7642 15.5547 10.7642 14.9218 11.1549 14.5315L13.8549 11.8337C14.2456 11.4434 14.879 11.4434 15.2697 11.8337C15.6604 12.2241 15.6604 12.857 15.2697 13.2473L12.5697 15.9451C12.179 16.3355 11.5456 16.3355 11.1549 15.9451Z" fill="#FC7E2F"/>
</svg>
