<svg width="20" height="20" viewBox="0 0 20 20" fill="none" xmlns="http://www.w3.org/2000/svg">
<path d="M8.33329 4.99984H11.6666C11.6666 4.55781 11.491 4.13389 11.1785 3.82133C10.8659 3.50877 10.442 3.33317 9.99996 3.33317C9.55793 3.33317 9.13401 3.50877 8.82145 3.82133C8.50889 4.13389 8.33329 4.55781 8.33329 4.99984ZM6.66663 4.99984C6.66663 4.11578 7.01782 3.26794 7.64294 2.64281C8.26806 2.01769 9.1159 1.6665 9.99996 1.6665C10.884 1.6665 11.7319 2.01769 12.357 2.64281C12.9821 3.26794 13.3333 4.11578 13.3333 4.99984H17.5C17.721 4.99984 17.9329 5.08763 18.0892 5.24392C18.2455 5.4002 18.3333 5.61216 18.3333 5.83317C18.3333 6.05418 18.2455 6.26615 18.0892 6.42243C17.9329 6.57871 17.721 6.6665 17.5 6.6665H16.765L16.0266 15.2832C15.9556 16.1152 15.5749 16.8903 14.9598 17.4551C14.3447 18.0199 13.54 18.3333 12.705 18.3332H7.29496C6.45988 18.3333 5.65519 18.0199 5.04008 17.4551C4.42498 16.8903 4.04427 16.1152 3.97329 15.2832L3.23496 6.6665H2.49996C2.27895 6.6665 2.06698 6.57871 1.9107 6.42243C1.75442 6.26615 1.66663 6.05418 1.66663 5.83317C1.66663 5.61216 1.75442 5.4002 1.9107 5.24392C2.06698 5.08763 2.27895 4.99984 2.49996 4.99984H6.66663ZM12.5 9.99984C12.5 9.77882 12.4122 9.56686 12.2559 9.41058C12.0996 9.2543 11.8876 9.1665 11.6666 9.1665C11.4456 9.1665 11.2337 9.2543 11.0774 9.41058C10.9211 9.56686 10.8333 9.77882 10.8333 9.99984V13.3332C10.8333 13.5542 10.9211 13.7661 11.0774 13.9224C11.2337 14.0787 11.4456 14.1665 11.6666 14.1665C11.8876 14.1665 12.0996 14.0787 12.2559 13.9224C12.4122 13.7661 12.5 13.5542 12.5 13.3332V9.99984ZM8.33329 9.1665C8.55431 9.1665 8.76627 9.2543 8.92255 9.41058C9.07883 9.56686 9.16663 9.77882 9.16663 9.99984V13.3332C9.16663 13.5542 9.07883 13.7661 8.92255 13.9224C8.76627 14.0787 8.55431 14.1665 8.33329 14.1665C8.11228 14.1665 7.90032 14.0787 7.74404 13.9224C7.58776 13.7661 7.49996 13.5542 7.49996 13.3332V9.99984C7.49996 9.77882 7.58776 9.56686 7.74404 9.41058C7.90032 9.2543 8.11228 9.1665 8.33329 9.1665ZM5.63329 15.1415C5.6688 15.5577 5.85927 15.9453 6.167 16.2278C6.47472 16.5102 6.87728 16.6668 7.29496 16.6665H12.705C13.1224 16.6663 13.5245 16.5096 13.8319 16.2272C14.1392 15.9448 14.3295 15.5574 14.365 15.1415L15.0916 6.6665H4.90829L5.63329 15.1415Z" fill="#B4B3B3"/>
</svg>
