<svg width="121" height="51" viewBox="0 0 121 51" fill="none" xmlns="http://www.w3.org/2000/svg">
<g filter="url(#filter0_d_313_7633)">
<rect x="4" y="6" width="113" height="39" rx="5" fill="white"/>
<rect x="4.5" y="6.5" width="112" height="38" rx="4.5" stroke="#DFDFDF"/>
</g>
<path fill-rule="evenodd" clip-rule="evenodd" d="M34.6476 15.5538C34.0147 14.9211 33.1564 14.5657 32.2615 14.5657C31.3665 14.5657 30.5082 14.9211 29.8753 15.5538L29.08 16.3503L34.6487 21.9191L35.443 21.1237C35.7564 20.8103 36.0051 20.4382 36.1747 20.0287C36.3444 19.6192 36.4317 19.1803 36.4317 18.737C36.4317 18.2938 36.3444 17.8548 36.1747 17.4453C36.0051 17.0358 35.7564 16.6637 35.443 16.3503L34.6476 15.5538ZM33.0568 23.5098L27.4881 17.9411L17.2618 28.1685C17.0381 28.3923 16.8817 28.6745 16.8107 28.983L15.6531 33.9948C15.61 34.1809 15.6149 34.3749 15.6675 34.5585C15.72 34.7421 15.8185 34.9093 15.9535 35.0444C16.0886 35.1794 16.2558 35.2779 16.4394 35.3305C16.623 35.383 16.817 35.388 17.0031 35.3448L22.0161 34.1883C22.3241 34.1171 22.6059 33.9608 22.8295 33.7372L33.0568 23.5098Z" fill="#FC7E2F"/>
<path d="M49.182 18.386H51.035V19.372C51.035 22.347 49.624 25.016 46.615 25.985L45.442 24.234C48.077 23.384 49.182 21.344 49.182 19.372V18.386ZM49.641 18.386H51.477V19.372C51.477 21.225 52.548 23.146 55.098 23.962L53.942 25.713C51.001 24.761 49.641 22.194 49.641 19.372V18.386ZM46.054 17.689H54.554V19.491H46.054V17.689ZM55.812 16.771H58.073V26.257H55.812V16.771ZM57.444 20.579H60.164V22.432H57.444V20.579ZM47.567 26.937H58.073V32.513H55.812V28.756H47.567V26.937ZM64.9737 17.587H66.8607V18.998C66.8607 22.16 65.4497 24.931 62.3557 25.968L61.1827 24.149C63.8687 23.282 64.9737 21.157 64.9737 18.998V17.587ZM65.4497 17.587H67.2687V18.896C67.2687 20.987 68.2887 22.925 70.7877 23.724L69.6147 25.492C66.7077 24.489 65.4497 21.956 65.4497 18.896V17.587ZM72.2327 16.771H74.4937V25.985H72.2327V16.771ZM69.1557 26.393C72.4877 26.393 74.5447 27.532 74.5447 29.453C74.5447 31.391 72.4877 32.513 69.1557 32.513C65.8237 32.513 63.7667 31.391 63.7667 29.453C63.7667 27.532 65.8237 26.393 69.1557 26.393ZM69.1557 28.144C67.1157 28.144 66.0277 28.569 66.0277 29.453C66.0277 30.337 67.1157 30.779 69.1557 30.779C71.2127 30.779 72.3007 30.337 72.3007 29.453C72.3007 28.569 71.2127 28.144 69.1557 28.144ZM69.3597 19.627H72.5557V21.463H69.3597V19.627ZM87.0553 16.771H89.2993V32.513H87.0553V16.771ZM88.7893 22.908H91.5773V24.795H88.7893V22.908ZM76.8893 19.1H86.0523V20.902H76.8893V19.1ZM81.4963 21.786C83.7913 21.786 85.4913 23.35 85.4913 25.543C85.4913 27.736 83.7913 29.3 81.4963 29.3C79.2013 29.3 77.5013 27.736 77.5013 25.543C77.5013 23.35 79.2013 21.786 81.4963 21.786ZM81.4963 23.622C80.4253 23.622 79.6603 24.336 79.6603 25.543C79.6603 26.75 80.4253 27.464 81.4963 27.464C82.5673 27.464 83.3323 26.75 83.3323 25.543C83.3323 24.336 82.5673 23.622 81.4963 23.622ZM80.3573 17.026H82.6183V19.78H80.3573V17.026ZM103.442 16.771H105.72V32.513H103.442V16.771ZM98.801 18.403H101.045C101.045 23.214 99.413 27.158 93.82 29.861L92.647 28.059C97.169 25.883 98.801 23.027 98.801 18.811V18.403ZM93.48 18.403H99.872V20.188H93.48V18.403Z" fill="#FC7E2F"/>
<defs>
<filter id="filter0_d_313_7633" x="0" y="4" width="121" height="47" filterUnits="userSpaceOnUse" color-interpolation-filters="sRGB">
<feFlood flood-opacity="0" result="BackgroundImageFix"/>
<feColorMatrix in="SourceAlpha" type="matrix" values="0 0 0 0 0 0 0 0 0 0 0 0 0 0 0 0 0 0 127 0" result="hardAlpha"/>
<feOffset dy="2"/>
<feGaussianBlur stdDeviation="2"/>
<feComposite in2="hardAlpha" operator="out"/>
<feColorMatrix type="matrix" values="0 0 0 0 0 0 0 0 0 0 0 0 0 0 0 0 0 0 0.25 0"/>
<feBlend mode="normal" in2="BackgroundImageFix" result="effect1_dropShadow_313_7633"/>
<feBlend mode="normal" in="SourceGraphic" in2="effect1_dropShadow_313_7633" result="shape"/>
</filter>
</defs>
</svg>
