<svg width="367" height="178" viewBox="0 0 367 178" fill="none" xmlns="http://www.w3.org/2000/svg">
<rect x="1" y="1" width="348" height="176" rx="14" fill="#FC7E2F" fill-opacity="0.85" stroke="white" stroke-width="2"/>
<path d="M110.76 44.939H126.701V46.972H110.76V44.939ZM117.41 46.25H119.918V52.71H117.41V46.25ZM118.683 35.686C122.445 35.686 125.048 37.244 125.048 39.657C125.048 42.051 122.445 43.59 118.683 43.59C114.94 43.59 112.337 42.051 112.337 39.657C112.337 37.244 114.94 35.686 118.683 35.686ZM118.683 37.7C116.384 37.7 114.921 38.384 114.921 39.657C114.921 40.911 116.384 41.595 118.683 41.595C121.001 41.595 122.445 40.911 122.445 39.657C122.445 38.384 121.001 37.7 118.683 37.7ZM140.361 35.078H142.888V52.729H140.361V35.078ZM129.189 46.573H130.747C133.863 46.573 136.352 46.459 139.145 45.984L139.392 48.017C136.542 48.53 133.958 48.625 130.747 48.625H129.189V46.573ZM129.17 36.579H137.473V43.381H131.754V47.333H129.189V41.386H134.889V38.593H129.17V36.579ZM154.233 36.313C156.912 36.313 158.85 38.745 158.85 42.583C158.85 46.459 156.912 48.891 154.233 48.891C151.554 48.891 149.616 46.459 149.616 42.583C149.616 38.745 151.554 36.313 154.233 36.313ZM154.233 38.612C152.922 38.612 152.048 39.999 152.048 42.583C152.048 45.205 152.922 46.611 154.233 46.611C155.544 46.611 156.437 45.205 156.437 42.583C156.437 39.999 155.544 38.612 154.233 38.612ZM160.769 35.097H163.315V52.691H160.769V35.097ZM162.745 41.728H165.861V43.818H162.745V41.728ZM179.064 35.078H181.61V52.729H179.064V35.078ZM172.129 36.313C174.789 36.313 176.746 38.745 176.746 42.583C176.746 46.459 174.789 48.891 172.129 48.891C169.469 48.891 167.512 46.459 167.512 42.583C167.512 38.745 169.469 36.313 172.129 36.313ZM172.129 38.612C170.818 38.612 169.925 39.999 169.925 42.583C169.925 45.205 170.818 46.611 172.129 46.611C173.44 46.611 174.314 45.205 174.314 42.583C174.314 39.999 173.44 38.612 172.129 38.612ZM190.14 36.256C192.914 36.256 194.985 38.061 194.985 40.588C194.985 43.134 192.914 44.939 190.14 44.939C187.385 44.939 185.276 43.134 185.276 40.588C185.276 38.061 187.385 36.256 190.14 36.256ZM190.14 38.422C188.791 38.422 187.765 39.22 187.765 40.588C187.765 41.975 188.791 42.773 190.14 42.773C191.489 42.773 192.515 41.975 192.515 40.588C192.515 39.22 191.489 38.422 190.14 38.422ZM196.638 35.078H199.165V52.729H196.638V35.078ZM184.858 49.157L184.554 47.124C187.651 47.124 191.964 47.086 195.669 46.535L195.859 48.359C192.04 49.119 187.898 49.157 184.858 49.157ZM217.882 35.097H220.428V52.691H217.882V35.097ZM206.197 36.712H216.077V38.726H206.197V36.712ZM205.969 48.682L205.722 46.611C208.895 46.611 213.132 46.554 216.761 46.117L216.894 47.96C213.189 48.587 209.142 48.663 205.969 48.682ZM207.717 38.289H210.168V47.162H207.717V38.289ZM212.106 38.289H214.557V47.162H212.106V38.289ZM223.239 45.224H239.18V47.219H223.239V45.224ZM229.889 46.231H232.397V52.691H229.889V46.231ZM225.063 35.762H227.571V37.757H234.791V35.762H237.299V43.552H225.063V35.762ZM227.571 39.733V41.538H234.791V39.733H227.571ZM246.155 36.579H257.308V38.612H246.155V36.579ZM244.54 48.53H260.443V50.582H244.54V48.53ZM250.164 42.488H252.691V49.537H250.164V42.488ZM256.396 36.579H258.923V38.27C258.923 40.474 258.923 42.944 258.22 46.706L255.693 46.421C256.396 42.925 256.396 40.379 256.396 38.27V36.579ZM262.892 36.484H271.423V44.996H262.892V36.484ZM268.953 38.479H265.362V43.001H268.953V38.479ZM274.083 35.116H276.629V47.618H274.083V35.116ZM264.906 50.297H277.066V52.33H264.906V50.297ZM264.906 46.478H267.433V51.19H264.906V46.478ZM122.084 69.097H124.611V79.699H122.084V69.097ZM123.908 73.429H126.948V75.5H123.908V73.429ZM113.173 80.459H124.611V86.501H113.173V80.459ZM122.141 82.454H115.662V84.506H122.141V82.454ZM110.76 70.674H121.115V72.669H110.76V70.674ZM115.947 73.182C118.493 73.182 120.26 74.474 120.26 76.355C120.26 78.255 118.493 79.509 115.947 79.509C113.382 79.509 111.615 78.255 111.615 76.355C111.615 74.474 113.382 73.182 115.947 73.182ZM115.947 75.063C114.807 75.063 114.047 75.5 114.047 76.355C114.047 77.21 114.807 77.666 115.947 77.666C117.068 77.666 117.847 77.21 117.847 76.355C117.847 75.5 117.068 75.063 115.947 75.063ZM114.674 68.983H117.201V71.757H114.674V68.983ZM130.386 71.092H132.514C132.514 75.557 132.096 79.49 129.911 82.986L127.973 81.941C130.025 78.711 130.386 75.652 130.386 71.301V71.092ZM128.543 71.092H131.735V73.125H128.543V71.092ZM134.319 71.092H136.447C136.447 75.69 136.181 80.079 133.825 83.841L131.887 82.777C134.129 79.281 134.319 75.709 134.319 71.32V71.092ZM133.046 71.092H135.744V73.125H133.046V71.092ZM141.102 69.097H143.515V86.691H141.102V69.097ZM135.592 75.69H138.081V77.723H135.592V75.69ZM137.701 69.477H140.057V85.912H137.701V69.477ZM161.586 69.078H164.132V86.729H161.586V69.078ZM154.651 70.313C157.311 70.313 159.268 72.745 159.268 76.583C159.268 80.459 157.311 82.891 154.651 82.891C151.991 82.891 150.034 80.459 150.034 76.583C150.034 72.745 151.991 70.313 154.651 70.313ZM154.651 72.612C153.34 72.612 152.447 73.999 152.447 76.583C152.447 79.205 153.34 80.611 154.651 80.611C155.962 80.611 156.836 79.205 156.836 76.583C156.836 73.999 155.962 72.612 154.651 72.612ZM171.711 70.313C174.39 70.313 176.328 72.745 176.328 76.583C176.328 80.459 174.39 82.891 171.711 82.891C169.032 82.891 167.094 80.459 167.094 76.583C167.094 72.745 169.032 70.313 171.711 70.313ZM171.711 72.612C170.4 72.612 169.526 73.999 169.526 76.583C169.526 79.205 170.4 80.611 171.711 80.611C173.022 80.611 173.915 79.205 173.915 76.583C173.915 73.999 173.022 72.612 171.711 72.612ZM180.109 73.182H183.206V75.272H180.109V73.182ZM180.109 78.35H183.206V80.421H180.109V78.35ZM178.247 69.097H180.793V86.691H178.247V69.097ZM196.6 69.097H199.146V86.691H196.6V69.097ZM191.413 70.921H193.921C193.921 76.298 192.097 80.706 185.846 83.727L184.535 81.713C189.589 79.281 191.413 76.089 191.413 71.377V70.921ZM185.466 70.921H192.61V72.916H185.466V70.921ZM217.046 69.097H219.554V86.691H217.046V69.097ZM218.984 75.956H222.1V78.065H218.984V75.956ZM205.684 71.7H215.925V73.714H205.684V71.7ZM210.833 74.702C213.398 74.702 215.298 76.45 215.298 78.901C215.298 81.352 213.398 83.1 210.833 83.1C208.268 83.1 206.368 81.352 206.368 78.901C206.368 76.45 208.268 74.702 210.833 74.702ZM210.833 76.754C209.636 76.754 208.781 77.552 208.781 78.901C208.781 80.25 209.636 81.048 210.833 81.048C212.03 81.048 212.885 80.25 212.885 78.901C212.885 77.552 212.03 76.754 210.833 76.754ZM209.56 69.382H212.087V72.46H209.56V69.382ZM224.873 70.579H236.026V72.612H224.873V70.579ZM223.258 82.53H239.161V84.582H223.258V82.53ZM228.882 76.488H231.409V83.537H228.882V76.488ZM235.114 70.579H237.641V72.27C237.641 74.474 237.641 76.944 236.938 80.706L234.411 80.421C235.114 76.925 235.114 74.379 235.114 72.27V70.579ZM242.427 86.482C242.06 86.9633 241.591 87.204 241.021 87.204C240.54 87.204 240.128 87.0583 239.786 86.767C239.951 86.2983 240.103 85.798 240.242 85.266C240.394 84.7467 240.527 84.2337 240.641 83.727C240.768 83.2077 240.869 82.739 240.945 82.321C241.122 82.2197 241.338 82.1373 241.591 82.074C241.857 81.998 242.123 81.96 242.389 81.96C242.744 81.96 243.048 82.0423 243.301 82.207C243.567 82.359 243.7 82.644 243.7 83.062C243.7 83.3787 243.63 83.7587 243.491 84.202C243.364 84.6453 243.2 85.0697 242.997 85.475C242.807 85.893 242.617 86.2287 242.427 86.482ZM252.462 71.738H260.879V73.752H252.462V71.738ZM256.699 74.531C258.941 74.531 260.556 76.26 260.556 78.73C260.556 81.181 258.941 82.91 256.699 82.91C254.476 82.91 252.842 81.181 252.842 78.73C252.842 76.26 254.476 74.531 256.699 74.531ZM256.699 76.64C255.749 76.64 255.084 77.4 255.084 78.73C255.084 80.06 255.749 80.801 256.699 80.801C257.649 80.801 258.333 80.06 258.333 78.73C258.333 77.4 257.649 76.64 256.699 76.64ZM265.192 69.097H267.605V86.691H265.192V69.097ZM263.083 76.241H265.99V78.274H263.083V76.241ZM261.506 69.42H263.862V85.95H261.506V69.42ZM255.464 69.572H257.953V73.011H255.464V69.572ZM282.157 69.097H284.684V77.932H282.157V69.097ZM276.286 69.762H279.041C279.041 74.436 276.343 77.172 271.004 78.331L270.168 76.298C274.576 75.424 276.286 73.486 276.286 71.13V69.762ZM271.175 69.762H277.35V71.776H271.175V69.762ZM278.357 71.282H282.48V73.201H278.357V71.282ZM278.243 74.702H282.385V76.602H278.243V74.702ZM273.056 78.578H284.684V83.423H275.621V85.608H273.094V81.561H282.157V80.554H273.056V78.578ZM273.094 84.544H285.045V86.52H273.094V84.544ZM287.419 71.738H295.836V73.752H287.419V71.738ZM291.656 74.531C293.898 74.531 295.513 76.26 295.513 78.73C295.513 81.181 293.898 82.91 291.656 82.91C289.433 82.91 287.799 81.181 287.799 78.73C287.799 76.26 289.433 74.531 291.656 74.531ZM291.656 76.64C290.706 76.64 290.041 77.4 290.041 78.73C290.041 80.06 290.706 80.801 291.656 80.801C292.606 80.801 293.29 80.06 293.29 78.73C293.29 77.4 292.606 76.64 291.656 76.64ZM300.149 69.097H302.562V86.691H300.149V69.097ZM298.04 76.241H300.947V78.274H298.04V76.241ZM296.463 69.42H298.819V85.95H296.463V69.42ZM290.421 69.572H292.91V73.011H290.421V69.572ZM308.431 78.027H310.939V82.967H308.431V78.027ZM314.815 78.027H317.342V82.967H314.815V78.027ZM304.935 82.606H320.857V84.658H304.935V82.606ZM312.877 69.952C316.658 69.952 319.451 71.814 319.451 74.683C319.451 77.552 316.658 79.395 312.877 79.395C309.077 79.395 306.303 77.552 306.303 74.683C306.303 71.814 309.077 69.952 312.877 69.952ZM312.877 71.928C310.426 71.928 308.792 72.935 308.792 74.683C308.792 76.412 310.426 77.438 312.877 77.438C315.328 77.438 316.962 76.412 316.962 74.683C316.962 72.935 315.328 71.928 312.877 71.928ZM325.796 74.284C325.796 74.6007 325.789 75.025 325.777 75.557C325.764 76.0763 325.739 76.6527 325.701 77.286C325.675 77.9193 325.637 78.5463 325.587 79.167C325.536 79.775 325.473 80.326 325.397 80.82C325.308 80.896 325.15 80.9593 324.922 81.01C324.694 81.048 324.497 81.067 324.333 81.067C324.029 81.067 323.763 81.0163 323.535 80.915C323.319 80.801 323.186 80.6047 323.136 80.326C323.085 80.0093 323.034 79.5723 322.984 79.015C322.946 78.445 322.908 77.818 322.87 77.134C322.844 76.45 322.825 75.7787 322.813 75.12C322.8 74.4613 322.794 73.885 322.794 73.391C323.262 73.1123 323.794 72.973 324.39 72.973C324.833 72.973 325.175 73.0807 325.416 73.296C325.669 73.5113 325.796 73.8407 325.796 74.284ZM322.699 83.689C322.699 83.233 322.844 82.853 323.136 82.549C323.44 82.245 323.845 82.093 324.352 82.093C324.846 82.093 325.238 82.245 325.53 82.549C325.834 82.853 325.986 83.233 325.986 83.689C325.986 84.1577 325.834 84.544 325.53 84.848C325.238 85.152 324.846 85.304 324.352 85.304C323.845 85.304 323.44 85.152 323.136 84.848C322.844 84.544 322.699 84.1577 322.699 83.689Z" fill="white"/>
<g filter="url(#filter0_d_275_5910)">
<path d="M77.6648 42.7654L69.4618 30.2767C68.8538 29.353 68.0457 28.5953 67.1044 28.0664C66.1632 27.5375 65.1159 27.2526 64.0494 27.2354L48.4821 27H48.45C40.4129 27 34.2464 28.4169 30.2749 35.3316C26.5773 41.7682 25 52.7324 25 71.9925V74.3463H30.1027L26.8179 92H31.3697L34.6546 74.3463H36.1667C39.8142 74.3807 43.3282 72.9015 45.9498 70.2283C48.3198 67.8383 50.0292 64.5686 50.8937 60.7728L50.9015 60.7386L54.7321 41.3929H50.1691L46.5429 59.7068C45.4385 64.5144 42.1361 69.6387 36.1667 69.6387H29.475C29.5963 52.9757 31.0359 43.0966 34.0959 37.7689C36.6643 33.2966 40.4184 31.7091 48.4345 31.7069L63.9852 31.9423C64.3407 31.948 64.6898 32.043 65.0035 32.2193C65.3173 32.3956 65.5867 32.6482 65.7893 32.956L75.0685 47.0818L87.5333 49.2714V51.7663L85.4547 63.4502C84.8412 66.8987 83.7925 68.6358 79.4919 69.1803L61.8617 72.3593L61.7452 92H66.2118L66.3049 76.3334L80.0818 73.8472C83.2029 73.4428 85.5056 72.3827 87.1204 70.6073C88.5009 69.0894 89.3411 67.1501 89.845 64.3179L92 52.2038V45.2834L77.6648 42.7654Z" fill="white"/>
</g>
<defs>
<filter id="filter0_d_275_5910" x="21" y="27" width="75" height="73" filterUnits="userSpaceOnUse" color-interpolation-filters="sRGB">
<feFlood flood-opacity="0" result="BackgroundImageFix"/>
<feColorMatrix in="SourceAlpha" type="matrix" values="0 0 0 0 0 0 0 0 0 0 0 0 0 0 0 0 0 0 127 0" result="hardAlpha"/>
<feOffset dy="4"/>
<feGaussianBlur stdDeviation="2"/>
<feComposite in2="hardAlpha" operator="out"/>
<feColorMatrix type="matrix" values="0 0 0 0 0 0 0 0 0 0 0 0 0 0 0 0 0 0 0.25 0"/>
<feBlend mode="normal" in2="BackgroundImageFix" result="effect1_dropShadow_275_5910"/>
<feBlend mode="normal" in="SourceGraphic" in2="effect1_dropShadow_275_5910" result="shape"/>
</filter>
</defs>
</svg>
