<svg width="164" height="171" viewBox="0 0 164 171" fill="none" xmlns="http://www.w3.org/2000/svg">
<rect opacity="0.45" x="1.5" y="1.5" width="161" height="168" rx="28.5" fill="white" stroke="#FC7E2F" stroke-width="3"/>
<path d="M38.538 95.754H40.816V111.547H38.538V95.754ZM32.333 96.859C34.713 96.859 36.464 99.035 36.464 102.469C36.464 105.937 34.713 108.113 32.333 108.113C29.953 108.113 28.202 105.937 28.202 102.469C28.202 99.035 29.953 96.859 32.333 96.859ZM32.333 98.916C31.16 98.916 30.361 100.157 30.361 102.469C30.361 104.815 31.16 106.073 32.333 106.073C33.506 106.073 34.288 104.815 34.288 102.469C34.288 100.157 33.506 98.916 32.333 98.916ZM44.1637 97.182H51.7287V107.773H44.1637V97.182ZM49.5187 98.95H46.3907V105.988H49.5187V98.95ZM54.1767 95.754H56.4547V111.547H54.1767V95.754ZM62.8113 98.253H64.6133V100.021C64.6133 103.659 63.1343 107.212 60.1763 108.555L58.9013 106.77C61.5363 105.597 62.8113 102.69 62.8113 100.021V98.253ZM63.3213 98.253H65.1063V100.021C65.1063 102.571 66.3643 105.291 68.9993 106.379L67.7753 108.164C64.7833 106.872 63.3213 103.523 63.3213 100.021V98.253ZM59.5303 97.284H68.3533V99.137H59.5303V97.284ZM69.8153 95.771H72.0933V111.513H69.8153V95.771ZM86.0183 99.239H89.9623V101.058H86.0183V99.239ZM82.4143 96.417C84.7773 96.417 86.5623 97.998 86.5623 100.174C86.5623 102.367 84.7773 103.931 82.4143 103.931C80.0343 103.931 78.2493 102.367 78.2493 100.174C78.2493 97.998 80.0343 96.417 82.4143 96.417ZM82.4143 98.304C81.2583 98.304 80.4083 99.001 80.4083 100.174C80.4083 101.347 81.2583 102.061 82.4143 102.061C83.5703 102.061 84.4033 101.347 84.4033 100.174C84.4033 99.001 83.5703 98.304 82.4143 98.304ZM88.9763 95.771H91.2373V104.237H88.9763V95.771ZM80.7823 104.917H83.0263V106.413H88.9933V104.917H91.2373V111.343H80.7823V104.917ZM83.0263 108.147V109.541H88.9933V108.147H83.0263ZM93.718 107.943H107.964V109.779H93.718V107.943ZM99.685 104.968H101.946V108.691H99.685V104.968ZM95.316 96.791H106.366V102.027H97.594V104.679H95.35V100.259H104.122V98.576H95.316V96.791ZM95.35 103.778H106.723V105.597H95.35V103.778ZM111.006 103.03H122.073V104.832H111.006V103.03ZM109.357 107.773H123.603V109.626H109.357V107.773ZM111.006 97.063H121.954V98.899H113.25V103.778H111.006V97.063ZM124.995 107.943H139.241V109.779H124.995V107.943ZM130.962 104.968H133.223V108.691H130.962V104.968ZM126.593 96.791H137.643V102.027H128.871V104.679H126.627V100.259H135.399V98.576H126.593V96.791ZM126.627 103.778H138V105.597H126.627V103.778ZM45.6773 125.771H47.9553V137.042H45.6773V125.771ZM47.3093 130.157H50.0463V132.01H47.3093V130.157ZM41.2913 126.944H43.7053C43.7053 131.228 41.0873 134.169 36.3953 135.529L35.4433 133.727C39.3023 132.673 41.2913 130.565 41.2913 128.066V126.944ZM36.1233 126.944H42.5153V128.763H36.1233V126.944ZM37.7723 139.439H48.4823V141.241H37.7723V139.439ZM37.7723 135.903H40.0503V140.238H37.7723V135.903ZM62.115 125.771H64.376V137.365H62.115V125.771ZM51.592 126.893H59.905V128.695H51.592V126.893ZM51.422 135.495L51.201 133.642C53.734 133.642 57.27 133.608 60.109 133.285L60.228 134.934C57.304 135.427 53.921 135.495 51.422 135.495ZM52.833 128.474H55.009V133.863H52.833V128.474ZM56.488 128.474H58.647V133.863H56.488V128.474ZM60.211 128.525H63.339V130.327H60.211V128.525ZM60.211 131.687H63.339V133.506H60.211V131.687ZM53.972 139.439H64.733V141.241H53.972V139.439ZM53.972 136.515H56.25V140.799H53.972V136.515ZM74.068 127.522H75.938V128.848C75.938 131.823 74.493 134.509 71.467 135.495L70.311 133.727C72.929 132.877 74.068 130.837 74.068 128.848V127.522ZM74.527 127.522H76.38V128.848C76.38 130.718 77.502 132.639 80.069 133.455L78.913 135.206C75.955 134.271 74.527 131.704 74.527 128.848V127.522ZM70.906 126.893H79.474V128.678H70.906V126.893ZM81.055 125.788H83.333V137.144H81.055V125.788ZM72.844 139.439H83.724V141.241H72.844V139.439ZM72.844 136.124H75.105V140.34H72.844V136.124ZM96.0137 125.771H98.2747V137.144H96.0137V125.771ZM97.6287 130.055H100.366V131.908H97.6287V130.055ZM86.4767 132.758H87.7857C91.2027 132.758 92.9027 132.69 94.7897 132.282L95.0107 134.067C93.0897 134.492 91.2877 134.577 87.7857 134.577H86.4767V132.758ZM86.4767 127.012H93.5147V128.831H88.7207V133.727H86.4767V127.012ZM88.1257 139.439H98.8357V141.241H88.1257V139.439ZM88.1257 135.954H90.3867V140.357H88.1257V135.954ZM111.618 125.771H113.862V141.513H111.618V125.771ZM113.352 131.908H116.14V133.795H113.352V131.908ZM101.452 128.1H110.615V129.902H101.452V128.1ZM106.059 130.786C108.354 130.786 110.054 132.35 110.054 134.543C110.054 136.736 108.354 138.3 106.059 138.3C103.764 138.3 102.064 136.736 102.064 134.543C102.064 132.35 103.764 130.786 106.059 130.786ZM106.059 132.622C104.988 132.622 104.223 133.336 104.223 134.543C104.223 135.75 104.988 136.464 106.059 136.464C107.13 136.464 107.895 135.75 107.895 134.543C107.895 133.336 107.13 132.622 106.059 132.622ZM104.92 126.026H107.181V128.78H104.92V126.026ZM128.005 125.771H130.283V141.513H128.005V125.771ZM123.364 127.403H125.608C125.608 132.214 123.976 136.158 118.383 138.861L117.21 137.059C121.732 134.883 123.364 132.027 123.364 127.811V127.403ZM118.043 127.403H124.435V129.188H118.043V127.403Z" fill="black"/>
<path d="M72.125 69.7H93.875C94.9021 69.7 95.7636 69.4024 96.4596 68.8072C97.1556 68.212 97.5024 67.4763 97.5 66.6C97.4976 65.7237 97.1496 64.988 96.456 64.3928C95.7624 63.7976 94.9021 63.5 93.875 63.5H72.125C71.0979 63.5 70.2376 63.7976 69.544 64.3928C68.8504 64.988 68.5024 65.7237 68.5 66.6C68.4976 67.4763 68.8456 68.213 69.544 68.8103C70.2424 69.4076 71.1027 69.7041 72.125 69.7ZM72.125 60.4H93.875C94.9021 60.4 95.7636 60.1024 96.4596 59.5072C97.1556 58.912 97.5024 58.1763 97.5 57.3C97.4976 56.4237 97.1496 55.688 96.456 55.0928C95.7624 54.4976 94.9021 54.2 93.875 54.2H72.125C71.0979 54.2 70.2376 54.4976 69.544 55.0928C68.8504 55.688 68.5024 56.4237 68.5 57.3C68.4976 58.1763 68.8456 58.913 69.544 59.5103C70.2424 60.1076 71.1027 60.4041 72.125 60.4ZM83 28.78C82.275 28.005 81.3228 27.3974 80.1435 26.9572C78.9642 26.517 77.7413 26.2979 76.475 26.3C74.3 26.3 72.4271 26.9717 70.8562 28.315C69.2854 29.6583 68.5 31.26 68.5 33.12C68.5 35.8583 69.9802 38.4551 72.9406 40.9103C75.901 43.3655 78.4385 45.4187 80.5531 47.07C81.2177 47.6383 82.0333 47.9225 83 47.9225C83.9667 47.9225 84.7823 47.6383 85.4469 47.07C87.5615 45.4167 90.099 43.3634 93.0594 40.9103C96.0198 38.4572 97.5 35.8604 97.5 33.12C97.5 31.26 96.7146 29.6583 95.1437 28.315C93.5729 26.9717 91.7 26.3 89.525 26.3C88.2562 26.3 87.0322 26.5201 85.8529 26.9603C84.6735 27.4005 83.7226 28.0071 83 28.78ZM104.75 79H61.25C59.2562 79 57.5501 78.3934 56.1315 77.1803C54.7129 75.9672 54.0024 74.5071 54 72.8V23.2C54 21.495 54.7105 20.0359 56.1315 18.8228C57.5525 17.6097 59.2587 17.0021 61.25 17H104.75C106.744 17 108.451 17.6076 109.872 18.8228C111.293 20.038 112.002 21.4971 112 23.2V72.8C112 74.505 111.291 75.9651 109.872 77.1803C108.454 78.3955 106.746 79.0021 104.75 79Z" fill="url(#paint0_linear_275_5911)"/>
<defs>
<linearGradient id="paint0_linear_275_5911" x1="83" y1="17" x2="83" y2="79" gradientUnits="userSpaceOnUse">
<stop stop-color="#FF9A62"/>
<stop offset="0.5" stop-color="#FF9A62" stop-opacity="0.96"/>
<stop offset="1" stop-color="#FFE5E9" stop-opacity="0.9"/>
</linearGradient>
</defs>
</svg>
