<svg width="164" height="171" viewBox="0 0 164 171" fill="none" xmlns="http://www.w3.org/2000/svg">
<rect opacity="0.45" x="1.5" y="1.5" width="161" height="168" rx="28.5" fill="white" stroke="#FC7E2F" stroke-width="3"/>
<path d="M60.4251 22.6588C61.1436 19.5336 64.3177 17.5694 67.5147 18.2718L100.712 25.5657C103.909 26.2681 105.918 29.371 105.199 32.4963L101.668 47.8582C100.949 50.9835 97.7751 52.9476 94.5781 52.2452L61.3809 44.9513C58.184 44.2489 56.1748 41.146 56.8934 38.0207L60.4251 22.6588Z" fill="#FC7E2F"/>
<g filter="url(#filter0_b_250_5850)">
<path fill-rule="evenodd" clip-rule="evenodd" d="M72.3715 30.6567H57.8995C52.9844 30.6567 49 34.5518 49 39.3567V66.3C49 71.1049 52.9844 75 57.8995 75H103.101C108.016 75 112 71.1049 112 66.3V39.3567C112 34.5518 108.016 30.6567 103.101 30.6567L88.6285 30.6567C87.8195 34.3182 84.4875 37.0618 80.5 37.0618C76.5125 37.0618 73.1804 34.3182 72.3715 30.6567Z" fill="url(#paint0_linear_250_5850)" fill-opacity="0.3"/>
</g>
<g filter="url(#filter1_b_250_5850)">
<path fill-rule="evenodd" clip-rule="evenodd" d="M72.2526 30.8017H57.8995C53.0663 30.8017 49.1483 34.6319 49.1483 39.3567V66.3C49.1483 71.0248 53.0664 74.855 57.8995 74.855H103.101C107.934 74.855 111.852 71.0248 111.852 66.3V39.3567C111.852 34.6319 107.934 30.8017 103.101 30.8017H88.7474C87.8804 34.4712 84.5172 37.2068 80.5 37.2068C76.4828 37.2068 73.1195 34.4712 72.2526 30.8017ZM72.3715 30.6567H57.8995C52.9844 30.6567 49 34.5518 49 39.3567V66.3C49 71.1049 52.9844 75 57.8995 75H103.101C108.016 75 112 71.1049 112 66.3V39.3567C112 34.5518 108.016 30.6567 103.101 30.6567H88.6285C87.8195 34.3182 84.4875 37.0618 80.5 37.0618C76.5125 37.0618 73.1804 34.3182 72.3715 30.6567Z" fill="url(#paint1_linear_250_5850)"/>
<path fill-rule="evenodd" clip-rule="evenodd" d="M72.2526 30.8017H57.8995C53.0663 30.8017 49.1483 34.6319 49.1483 39.3567V66.3C49.1483 71.0248 53.0664 74.855 57.8995 74.855H103.101C107.934 74.855 111.852 71.0248 111.852 66.3V39.3567C111.852 34.6319 107.934 30.8017 103.101 30.8017H88.7474C87.8804 34.4712 84.5172 37.2068 80.5 37.2068C76.4828 37.2068 73.1195 34.4712 72.2526 30.8017ZM72.3715 30.6567H57.8995C52.9844 30.6567 49 34.5518 49 39.3567V66.3C49 71.1049 52.9844 75 57.8995 75H103.101C108.016 75 112 71.1049 112 66.3V39.3567C112 34.5518 108.016 30.6567 103.101 30.6567H88.6285C87.8195 34.3182 84.4875 37.0618 80.5 37.0618C76.5125 37.0618 73.1804 34.3182 72.3715 30.6567Z" fill="url(#paint2_radial_250_5850)"/>
</g>
<ellipse cx="76.5876" cy="52.8728" rx="5.33968" ry="5.22" fill="white"/>
<ellipse cx="86.9708" cy="55.4827" rx="2.66984" ry="2.61" fill="white"/>
<path d="M31.822 97.335H38.605V99.12H31.822V97.335ZM33.845 101.84H36.072V107.178H33.845V101.84ZM37.704 97.335H39.931V98.61C39.931 100.14 39.931 102.044 39.506 104.662L37.296 104.458C37.704 101.942 37.704 100.123 37.704 98.61V97.335ZM41.274 95.771H43.535V111.513H41.274V95.771ZM42.872 102.095H45.643V103.965H42.872V102.095ZM31.227 108.334L31.023 106.515C33.794 106.515 37.466 106.464 40.56 106.073L40.679 107.722C37.5 108.266 33.964 108.334 31.227 108.334ZM57.7117 95.771H59.9727V111.513H57.7117V95.771ZM54.6687 101.806H58.7997V103.642H54.6687V101.806ZM52.5437 97.403H54.7707C54.7707 102.18 53.2577 106.073 47.8007 108.81L46.6107 107.042C51.0647 104.832 52.5437 101.976 52.5437 97.811V97.403ZM47.3587 97.403H53.7337V99.188H47.3587V97.403ZM69.6647 97.522H71.5347V98.848C71.5347 101.823 70.0897 104.509 67.0637 105.495L65.9077 103.727C68.5257 102.877 69.6647 100.837 69.6647 98.848V97.522ZM70.1237 97.522H71.9767V98.848C71.9767 100.718 73.0987 102.639 75.6657 103.455L74.5097 105.206C71.5517 104.271 70.1237 101.704 70.1237 98.848V97.522ZM66.5027 96.893H75.0707V98.678H66.5027V96.893ZM76.6517 95.788H78.9297V107.144H76.6517V95.788ZM68.4407 109.439H79.3207V111.241H68.4407V109.439ZM68.4407 106.124H70.7017V110.34H68.4407V106.124ZM91.6103 95.771H93.8713V107.144H91.6103V95.771ZM93.2253 100.055H95.9623V101.908H93.2253V100.055ZM82.0733 102.758H83.3823C86.7993 102.758 88.4993 102.69 90.3863 102.282L90.6073 104.067C88.6863 104.492 86.8843 104.577 83.3823 104.577H82.0733V102.758ZM82.0733 97.012H89.1113V98.831H84.3173V103.727H82.0733V97.012ZM83.7223 109.439H94.4323V111.241H83.7223V109.439ZM83.7223 105.954H85.9833V110.357H83.7223V105.954ZM111.315 95.754H113.593V111.547H111.315V95.754ZM105.11 96.859C107.49 96.859 109.241 99.035 109.241 102.469C109.241 105.937 107.49 108.113 105.11 108.113C102.73 108.113 100.979 105.937 100.979 102.469C100.979 99.035 102.73 96.859 105.11 96.859ZM105.11 98.916C103.937 98.916 103.138 100.157 103.138 102.469C103.138 104.815 103.937 106.073 105.11 106.073C106.283 106.073 107.065 104.815 107.065 102.469C107.065 100.157 106.283 98.916 105.11 98.916ZM116.754 103.268H117.961C120.885 103.268 122.415 103.217 124.2 102.894L124.421 104.679C122.585 105.019 120.97 105.07 117.961 105.07H116.754V103.268ZM116.737 96.672H123.656V101.636H118.998V104.458H116.754V99.953H121.412V98.457H116.737V96.672ZM127.073 95.788H129.334V105.478H127.073V95.788ZM124.557 97.947H127.481V99.749H124.557V97.947ZM124.557 101.296H127.481V103.098H124.557V101.296ZM118.556 106.192H129.334V111.53H127.073V107.994H118.556V106.192ZM51.9197 137.858H66.1657V139.694H51.9197V137.858ZM57.9037 134.373H60.1647V138.368H57.9037V134.373ZM57.8357 127.828H59.7397V128.389C59.7397 131.704 57.3597 134.339 53.3477 135.07L52.4637 133.285C55.9657 132.741 57.8357 130.565 57.8357 128.389V127.828ZM58.2947 127.828H60.1987V128.389C60.1987 130.565 62.0687 132.673 65.6557 133.2L64.7887 134.985C60.7087 134.271 58.2947 131.704 58.2947 128.389V127.828ZM53.0927 126.961H64.9417V128.763H53.0927V126.961ZM71.5363 135.342H73.7973V137.892H71.5363V135.342ZM78.4213 125.771H80.6823V141.513H78.4213V125.771ZM67.8983 138.895L67.6263 137.076C70.4823 137.059 74.2903 137.059 77.6053 136.617L77.7583 138.249C74.3413 138.878 70.6863 138.895 67.8983 138.895ZM67.9323 127.505H77.4013V129.273H67.9323V127.505ZM72.6583 129.902C74.9873 129.902 76.6023 131.092 76.6023 132.843C76.6023 134.611 74.9873 135.801 72.6583 135.801C70.3633 135.801 68.7483 134.611 68.7483 132.843C68.7483 131.092 70.3633 129.902 72.6583 129.902ZM72.6583 131.602C71.6383 131.602 70.9073 132.044 70.9073 132.843C70.9073 133.659 71.6383 134.101 72.6583 134.101C73.7123 134.101 74.4433 133.659 74.4433 132.843C74.4433 132.044 73.7123 131.602 72.6583 131.602ZM71.5363 125.839H73.7973V128.525H71.5363V125.839ZM93.278 125.771H95.522V141.513H93.278V125.771ZM95.012 131.908H97.8V133.795H95.012V131.908ZM83.112 128.1H92.275V129.902H83.112V128.1ZM87.719 130.786C90.014 130.786 91.714 132.35 91.714 134.543C91.714 136.736 90.014 138.3 87.719 138.3C85.424 138.3 83.724 136.736 83.724 134.543C83.724 132.35 85.424 130.786 87.719 130.786ZM87.719 132.622C86.648 132.622 85.883 133.336 85.883 134.543C85.883 135.75 86.648 136.464 87.719 136.464C88.79 136.464 89.555 135.75 89.555 134.543C89.555 133.336 88.79 132.622 87.719 132.622ZM86.58 126.026H88.841V128.78H86.58V126.026ZM109.665 125.771H111.943V141.513H109.665V125.771ZM105.024 127.403H107.268C107.268 132.214 105.636 136.158 100.043 138.861L98.8697 137.059C103.392 134.883 105.024 132.027 105.024 127.811V127.403ZM99.7027 127.403H106.095V129.188H99.7027V127.403Z" fill="black"/>
<defs>
<filter id="filter0_b_250_5850" x="19" y="0.656697" width="123" height="104.343" filterUnits="userSpaceOnUse" color-interpolation-filters="sRGB">
<feFlood flood-opacity="0" result="BackgroundImageFix"/>
<feGaussianBlur in="BackgroundImageFix" stdDeviation="15"/>
<feComposite in2="SourceAlpha" operator="in" result="effect1_backgroundBlur_250_5850"/>
<feBlend mode="normal" in="SourceGraphic" in2="effect1_backgroundBlur_250_5850" result="shape"/>
</filter>
<filter id="filter1_b_250_5850" x="19" y="0.656697" width="123" height="104.343" filterUnits="userSpaceOnUse" color-interpolation-filters="sRGB">
<feFlood flood-opacity="0" result="BackgroundImageFix"/>
<feGaussianBlur in="BackgroundImageFix" stdDeviation="15"/>
<feComposite in2="SourceAlpha" operator="in" result="effect1_backgroundBlur_250_5850"/>
<feBlend mode="normal" in="SourceGraphic" in2="effect1_backgroundBlur_250_5850" result="shape"/>
</filter>
<linearGradient id="paint0_linear_250_5850" x1="55.7417" y1="34.7479" x2="111.694" y2="75.9084" gradientUnits="userSpaceOnUse">
<stop stop-color="#FC7E2F"/>
<stop offset="0.447036" stop-color="#FC7E2F" stop-opacity="0.955296"/>
<stop offset="1" stop-color="#FFF3F5" stop-opacity="0.9"/>
</linearGradient>
<linearGradient id="paint1_linear_250_5850" x1="58.0664" y1="29.073" x2="104.973" y2="67.9826" gradientUnits="userSpaceOnUse">
<stop offset="0.188941" stop-color="#FFDBE1" stop-opacity="0.523483"/>
<stop offset="0.526042" stop-color="#FC7E2F"/>
<stop offset="1" stop-color="#FFEAEE" stop-opacity="0.1"/>
</linearGradient>
<radialGradient id="paint2_radial_250_5850" cx="0" cy="0" r="1" gradientUnits="userSpaceOnUse" gradientTransform="translate(58.4151 73.5483) rotate(-40.9741) scale(41.2597 68.28)">
<stop stop-color="white"/>
<stop offset="1" stop-color="white" stop-opacity="0"/>
</radialGradient>
</defs>
</svg>
