<svg width="11" height="11" viewBox="0 0 11 11" fill="none" xmlns="http://www.w3.org/2000/svg">
<g clip-path="url(#clip0_847_4770)">
<path d="M3.4422 9.07581C4.04788 9.42512 4.75063 9.62498 5.50006 9.62498C7.77823 9.62498 9.625 7.77817 9.625 5.5C9.625 3.22183 7.77817 1.375 5.5 1.375C3.22183 1.375 1.375 3.22183 1.375 5.5C1.375 6.24943 1.57485 6.95218 1.92417 7.55786L1.92446 7.55836C1.95878 7.61786 1.97598 7.64769 1.98374 7.67576C1.99098 7.70195 1.99337 7.72533 1.99152 7.75245C1.98955 7.78122 1.97961 7.81105 1.95996 7.86997L1.95923 7.87218L1.60685 8.92931L1.60658 8.93014C1.53212 9.1535 1.49487 9.26524 1.52139 9.3396C1.54449 9.4044 1.59555 9.4554 1.66034 9.4785C1.73479 9.50505 1.84687 9.46774 2.07078 9.3931L3.12791 9.04073L3.12863 9.04049C3.18853 9.02052 3.21847 9.01054 3.24748 9.00855C3.2746 9.0067 3.29806 9.00904 3.32426 9.01628C3.3524 9.02406 3.38236 9.04129 3.4422 9.07581Z" stroke="#3A3A3C" stroke-opacity="0.85" stroke-width="0.8" stroke-linecap="round" stroke-linejoin="round"/>
</g>
<defs>
<clipPath id="clip0_847_4770">
<rect width="11" height="11" fill="white"/>
</clipPath>
</defs>
</svg>
