<svg width="335" height="110" viewBox="0 0 335 110" fill="none" xmlns="http://www.w3.org/2000/svg">
<rect x="1.25" y="4.25" width="332.5" height="92.5" rx="23.75" fill="white" stroke="#FC7E2F" stroke-width="2.5"/>
<path d="M288.841 37.7132C288.303 38.17 288 38.7894 288 39.4353C288 40.0812 288.303 40.7006 288.841 41.1574L303.064 53.2147L288.841 65.272C288.318 65.7314 288.028 66.3467 288.035 66.9854C288.041 67.624 288.344 68.235 288.876 68.6866C289.409 69.1382 290.13 69.3944 290.883 69.3999C291.636 69.4055 292.362 69.1599 292.904 68.7162L309.159 54.9368C309.697 54.48 310 53.8606 310 53.2147C310 52.5688 309.697 51.9494 309.159 51.4926L292.904 37.7132C292.365 37.2565 291.635 37 290.873 37C290.111 37 289.38 37.2565 288.841 37.7132Z" fill="#FF9A62"/>
<path d="M39.9553 46.8303C39.0235 47.7621 38.5 49.026 38.5 50.3438V50.8906C38.5 51.467 38.5004 54.7703 40.7161 57.9551C42.2513 60.1616 44.7199 62.1369 48.5854 63.2126C49.3626 61.8689 50.4667 60.7403 51.7978 59.9335C53.2439 59.0569 54.9027 58.5935 56.5938 58.5938C56.5938 58.5938 56.5938 58.5938 56.5938 58.5938H60.2742C57.7085 56.2999 56.0939 52.9632 56.0938 49.2504C56.0938 49.2502 56.0938 49.2501 56.0938 49.25H56.5938C56.5928 47.9309 56.8088 46.6219 57.232 45.375L39.9553 46.8303ZM39.9553 46.8303C40.8871 45.8985 42.151 45.375 43.4688 45.375H56.7051L39.9553 46.8303ZM76.9758 58.5938C79.5416 56.2999 81.1562 52.9629 81.1562 49.25C81.1562 47.8974 80.9418 46.5956 80.5453 45.375H93.7812C95.099 45.375 96.3629 45.8985 97.2947 46.8303C98.2265 47.7621 98.75 49.026 98.75 50.3438V50.8906C98.75 51.4649 98.7496 54.7703 96.5339 57.9551C94.9987 60.1616 92.5301 62.1369 88.6646 63.2126C87.8874 61.8689 86.7833 60.7403 85.4522 59.9335C84.0061 59.0569 82.3473 58.5935 80.6562 58.5938C80.6562 58.5938 80.6562 58.5938 80.6562 58.5938H76.9758ZM61.3336 37.5836C59.7865 39.1308 57.688 40 55.5 40C53.312 40 51.2135 39.1308 49.6664 37.5836C48.1192 36.0365 47.25 33.938 47.25 31.75C47.25 29.562 48.1192 27.4635 49.6664 25.9164C51.2135 24.3692 53.312 23.5 55.5 23.5C57.688 23.5 59.7865 24.3692 61.3336 25.9164C62.8808 27.4635 63.75 29.562 63.75 31.75C63.75 33.938 62.8808 36.0365 61.3336 37.5836ZM90 31.75C90 33.938 89.1308 36.0365 87.5836 37.5836C86.0365 39.1308 83.938 40 81.75 40C79.562 40 77.4635 39.1308 75.9164 37.5836C74.3692 36.0365 73.5 33.938 73.5 31.75C73.5 29.562 74.3692 27.4635 75.9164 25.9164C77.4635 24.3692 79.562 23.5 81.75 23.5C83.938 23.5 86.0365 24.3692 87.5836 25.9164C89.1308 27.4635 90 29.562 90 31.75ZM51.625 67.8438C51.625 66.526 52.1485 65.2621 53.0803 64.3303C54.0121 63.3985 55.276 62.875 56.5938 62.875H80.6562C81.3088 62.875 81.9549 63.0035 82.5577 63.2532C83.1605 63.5029 83.7083 63.8689 84.1697 64.3303C84.6311 64.7917 84.9971 65.3395 85.2468 65.9423C85.4965 66.5451 85.625 67.1912 85.625 67.8438V68.3906C85.625 68.9649 85.6246 72.2703 83.4089 75.4551C81.1152 78.7518 76.7141 81.5625 68.625 81.5625C60.5359 81.5625 56.1348 78.7518 53.8411 75.4551C51.6254 72.2703 51.625 68.967 51.625 68.3906V67.8438ZM74.4586 55.0836C72.9115 56.6308 70.813 57.5 68.625 57.5C66.437 57.5 64.3385 56.6308 62.7914 55.0836C61.2442 53.5365 60.375 51.438 60.375 49.25C60.375 47.062 61.2442 44.9635 62.7914 43.4164C64.3385 41.8692 66.437 41 68.625 41C70.813 41 72.9115 41.8692 74.4586 43.4164C76.0058 44.9635 76.875 47.062 76.875 49.25C76.875 51.438 76.0058 53.5365 74.4586 55.0836Z" fill="url(#paint0_linear_1330_5419)" stroke="white"/>
<path d="M136.465 26.292H139.174C139.174 32.277 137.62 37.296 130.648 40.95L129.115 38.829C134.848 35.805 136.465 32.13 136.465 26.628V26.292ZM130.27 26.292H138.166V28.497H130.27V26.292ZM136.738 31.059V33.18L129.598 33.831L129.241 31.479L136.738 31.059ZM142.765 24.423H145.558V43.869H142.765V24.423ZM139.153 31.878H144.235V34.146H139.153V31.878ZM152.633 35.826H155.426V43.932H152.633V35.826ZM159.479 35.826H162.272V43.932H159.479V35.826ZM148.601 35.259H166.22V37.485H148.601V35.259ZM150.638 25.347H164.12V33.18H150.638V25.347ZM161.369 27.531H153.389V30.975H161.369V27.531ZM181.381 24.423H184.174V43.869H181.381V24.423ZM168.949 26.271H171.721V38.346H168.949V26.271ZM168.949 36.708H170.671C173.506 36.708 176.656 36.498 179.869 35.868L180.184 38.178C176.845 38.871 173.632 39.081 170.671 39.081H168.949V36.708ZM188.288 37.212H189.968C193.37 37.212 195.974 37.149 198.977 36.708L199.229 38.913C196.184 39.396 193.433 39.48 189.968 39.48H188.288V37.212ZM188.288 26.04H198.137V28.308H191.06V37.947H188.288V26.04ZM190.43 31.437H197.318V33.621H190.43V31.437ZM200.636 24.423H203.45V43.869H200.636V24.423ZM214.326 31.584H217.518V33.831H214.326V31.584ZM220.605 24.423H223.272V43.869H220.605V24.423ZM216.636 24.717H219.261V42.987H216.636V24.717ZM210.924 25.788C213.507 25.788 215.166 28.455 215.166 32.844C215.166 37.254 213.507 39.921 210.924 39.921C208.362 39.921 206.724 37.254 206.724 32.844C206.724 28.455 208.362 25.788 210.924 25.788ZM210.924 28.413C209.874 28.413 209.265 29.883 209.265 32.844C209.265 35.826 209.874 37.275 210.924 37.275C212.016 37.275 212.625 35.826 212.625 32.844C212.625 29.883 212.016 28.413 210.924 28.413ZM235.682 30.492H240.806V32.739H235.682V30.492ZM230.39 25.914H232.658V28.728C232.658 33.621 230.999 38.136 227.345 39.963L225.602 37.716C228.92 36.183 230.39 32.424 230.39 28.728V25.914ZM230.978 25.914H233.204V28.728C233.204 32.424 234.611 35.973 237.824 37.401L236.165 39.627C232.511 37.863 230.978 33.579 230.978 28.728V25.914ZM239.42 24.402H242.192V43.911H239.42V24.402ZM164.059 61.423H166.873V71.377H164.059V61.423ZM153.895 72.154H166.873V77.383H156.667V79.42H153.937V75.43H164.101V74.275H153.895V72.154ZM153.937 78.601H167.356V80.743H153.937V78.601ZM155.428 63.271H157.696V64.027C157.696 67.471 155.869 70.537 152.068 71.608L150.787 69.424C154.021 68.521 155.428 66.253 155.428 64.027V63.271ZM156.037 63.271H158.284V64.027C158.284 66.085 159.67 68.206 162.841 69.067L161.56 71.209C157.822 70.201 156.037 67.282 156.037 64.027V63.271ZM151.522 62.305H162.106V64.51H151.522V62.305ZM170.022 71.02H187.62V73.246H170.022V71.02ZM177.645 72.427H180.459V76.522H177.645V72.427ZM172.185 62.242H185.394V69.466H172.185V62.242ZM182.643 64.426H174.915V67.282H182.643V64.426ZM172.059 78.307H185.688V80.533H172.059V78.307ZM172.059 74.884H174.831V79.042H172.059V74.884ZM201.814 61.423H204.586V80.869H201.814V61.423ZM203.956 69.004H207.4V71.335H203.956V69.004ZM189.256 64.3H200.575V66.526H189.256V64.3ZM194.947 67.618C197.782 67.618 199.882 69.55 199.882 72.259C199.882 74.968 197.782 76.9 194.947 76.9C192.112 76.9 190.012 74.968 190.012 72.259C190.012 69.55 192.112 67.618 194.947 67.618ZM194.947 69.886C193.624 69.886 192.679 70.768 192.679 72.259C192.679 73.75 193.624 74.632 194.947 74.632C196.27 74.632 197.215 73.75 197.215 72.259C197.215 70.768 196.27 69.886 194.947 69.886ZM193.54 61.738H196.333V65.14H193.54V61.738ZM222.056 61.423H224.87V80.869H222.056V61.423ZM216.323 63.439H219.095C219.095 69.382 217.079 74.254 210.17 77.593L208.721 75.367C214.307 72.679 216.323 69.151 216.323 63.943V63.439ZM209.75 63.439H217.646V65.644H209.75V63.439Z" fill="black" fill-opacity="0.8"/>
<defs>
<linearGradient id="paint0_linear_1330_5419" x1="68.625" y1="23" x2="68.625" y2="82.0625" gradientUnits="userSpaceOnUse">
<stop stop-color="#FC7E2F"/>
<stop offset="0.45" stop-color="#FC7E2F" stop-opacity="0.96"/>
<stop offset="1" stop-color="#FFF3F5" stop-opacity="0.9"/>
</linearGradient>
</defs>
</svg>
