<svg width="335" height="95" viewBox="0 0 335 95" fill="none" xmlns="http://www.w3.org/2000/svg">
<rect x="1.25" y="1.25" width="332.5" height="92.5" rx="23.75" fill="white" stroke="#FC7E2F" stroke-width="2.5"/>
<path d="M284.841 32.7132C284.303 33.17 284 33.7894 284 34.4353C284 35.0812 284.303 35.7006 284.841 36.1574L299.064 48.2147L284.841 60.272C284.318 60.7314 284.028 61.3467 284.035 61.9854C284.041 62.624 284.344 63.235 284.876 63.6866C285.409 64.1382 286.13 64.3944 286.883 64.3999C287.636 64.4055 288.362 64.1599 288.904 63.7162L305.159 49.9368C305.697 49.48 306 48.8606 306 48.2147C306 47.5688 305.697 46.9494 305.159 46.4926L288.904 32.7132C288.365 32.2565 287.635 32 286.873 32C286.111 32 285.38 32.2565 284.841 32.7132Z" fill="#FF9A62"/>
<path d="M84.4583 57.7083C85.625 55.6667 86.5 53.3333 86.5 50.7083C86.5 43.4167 80.6667 37.5833 73.375 37.5833C66.0833 37.5833 60.25 43.4167 60.25 50.7083C60.25 58 66.0833 63.8333 73.375 63.8333C76 63.8333 78.3333 62.9583 80.375 61.7917L88.8333 70.25L92.9167 66.1667L84.4583 57.7083ZM73.375 58C69.2917 58 66.0833 54.7917 66.0833 50.7083C66.0833 46.625 69.2917 43.4167 73.375 43.4167C77.4583 43.4167 80.6667 46.625 80.6667 50.7083C80.6667 54.7917 77.4583 58 73.375 58ZM71.0417 69.375C69.875 70.5417 68.7083 71.4167 67.5417 72.5833L63.1667 76.375L58.7917 72.5833C43.9167 59.1667 34 50.125 34 39.0417C34 30 41 23 50.0417 23C55 23 59.9583 25.3333 63.1667 29.125C66.375 25.3333 71.3333 23 76.2917 23C85.3333 23 92.3333 30 92.3333 39.0417C92.3333 41.0833 92.0417 42.8333 91.4583 44.875C88.8333 37.2917 81.8333 31.75 73.375 31.75C62.875 31.75 54.4167 40.2083 54.4167 50.7083C54.4167 60.3333 61.7083 68.2083 71.0417 69.375Z" fill="#FF9A62"/>
<path d="M84.4583 57.7083C85.625 55.6667 86.5 53.3333 86.5 50.7083C86.5 43.4167 80.6667 37.5833 73.375 37.5833C66.0833 37.5833 60.25 43.4167 60.25 50.7083C60.25 58 66.0833 63.8333 73.375 63.8333C76 63.8333 78.3333 62.9583 80.375 61.7917L88.8333 70.25L92.9167 66.1667L84.4583 57.7083ZM73.375 58C69.2917 58 66.0833 54.7917 66.0833 50.7083C66.0833 46.625 69.2917 43.4167 73.375 43.4167C77.4583 43.4167 80.6667 46.625 80.6667 50.7083C80.6667 54.7917 77.4583 58 73.375 58ZM71.0417 69.375C69.875 70.5417 68.7083 71.4167 67.5417 72.5833L63.1667 76.375L58.7917 72.5833C43.9167 59.1667 34 50.125 34 39.0417C34 30 41 23 50.0417 23C55 23 59.9583 25.3333 63.1667 29.125C66.375 25.3333 71.3333 23 76.2917 23C85.3333 23 92.3333 30 92.3333 39.0417C92.3333 41.0833 92.0417 42.8333 91.4583 44.875C88.8333 37.2917 81.8333 31.75 73.375 31.75C62.875 31.75 54.4167 40.2083 54.4167 50.7083C54.4167 60.3333 61.7083 68.2083 71.0417 69.375Z" fill="url(#paint0_linear_1330_5418)" fill-opacity="0.5"/>
<path d="M84.4583 57.7083C85.625 55.6667 86.5 53.3333 86.5 50.7083C86.5 43.4167 80.6667 37.5833 73.375 37.5833C66.0833 37.5833 60.25 43.4167 60.25 50.7083C60.25 58 66.0833 63.8333 73.375 63.8333C76 63.8333 78.3333 62.9583 80.375 61.7917L88.8333 70.25L92.9167 66.1667L84.4583 57.7083ZM73.375 58C69.2917 58 66.0833 54.7917 66.0833 50.7083C66.0833 46.625 69.2917 43.4167 73.375 43.4167C77.4583 43.4167 80.6667 46.625 80.6667 50.7083C80.6667 54.7917 77.4583 58 73.375 58ZM71.0417 69.375C69.875 70.5417 68.7083 71.4167 67.5417 72.5833L63.1667 76.375L58.7917 72.5833C43.9167 59.1667 34 50.125 34 39.0417C34 30 41 23 50.0417 23C55 23 59.9583 25.3333 63.1667 29.125C66.375 25.3333 71.3333 23 76.2917 23C85.3333 23 92.3333 30 92.3333 39.0417C92.3333 41.0833 92.0417 42.8333 91.4583 44.875C88.8333 37.2917 81.8333 31.75 73.375 31.75C62.875 31.75 54.4167 40.2083 54.4167 50.7083C54.4167 60.3333 61.7083 68.2083 71.0417 69.375Z" fill="#FF9A62" fill-opacity="0.2"/>
<path d="M133.904 38.564H136.852V59.002H133.904V38.564ZM136.192 46.11H139.8V48.508H136.192V46.11ZM121.672 51.676H123.388C126.82 51.676 129.526 51.566 132.518 51.038L132.804 53.458C129.724 54.008 126.93 54.096 123.388 54.096H121.672V51.676ZM121.672 40.456H131.176V42.81H124.576V52.842H121.672V40.456ZM146.09 40.148H148.466V43.118C148.466 48.354 146.662 53.084 142.614 54.954L140.876 52.534C144.418 50.994 146.09 47.078 146.09 43.118V40.148ZM146.662 40.148H149.038V43.118C149.038 46.88 150.644 50.62 154.12 52.116L152.404 54.47C148.466 52.666 146.662 48.134 146.662 43.118V40.148ZM155.088 38.564H158.036V59.002H155.088V38.564ZM170.733 40.148H173.109V43.118C173.109 48.354 171.305 53.084 167.257 54.954L165.519 52.534C169.061 50.994 170.733 47.078 170.733 43.118V40.148ZM171.305 40.148H173.681V43.118C173.681 46.88 175.287 50.62 178.763 52.116L177.047 54.47C173.109 52.666 171.305 48.134 171.305 43.118V40.148ZM179.731 38.564H182.679V59.002H179.731V38.564ZM188.155 47.672H202.477V50.004H188.155V47.672ZM186.021 54.272H204.457V56.67H186.021V54.272ZM193.743 48.728H196.669V55.042H193.743V48.728ZM188.155 39.972H202.323V42.326H191.081V48.684H188.155V39.972ZM219.305 38.586H222.209V58.958H219.305V38.586ZM221.549 46.528H225.157V48.97H221.549V46.528ZM206.149 41.6H218.007V43.932H206.149V41.6ZM212.111 45.076C215.081 45.076 217.281 47.1 217.281 49.938C217.281 52.776 215.081 54.8 212.111 54.8C209.141 54.8 206.941 52.776 206.941 49.938C206.941 47.1 209.141 45.076 212.111 45.076ZM212.111 47.452C210.725 47.452 209.735 48.376 209.735 49.938C209.735 51.5 210.725 52.424 212.111 52.424C213.497 52.424 214.487 51.5 214.487 49.938C214.487 48.376 213.497 47.452 212.111 47.452ZM210.637 38.916H213.563V42.48H210.637V38.916ZM240.512 38.586H243.46V58.958H240.512V38.586ZM234.506 40.698H237.41C237.41 46.924 235.298 52.028 228.06 55.526L226.542 53.194C232.394 50.378 234.506 46.682 234.506 41.226V40.698ZM227.62 40.698H235.892V43.008H227.62V40.698Z" fill="black" fill-opacity="0.8"/>
<defs>
<linearGradient id="paint0_linear_1330_5418" x1="63.4583" y1="23" x2="63" y2="76" gradientUnits="userSpaceOnUse">
<stop stop-color="#FC7E2F"/>
<stop offset="0.45" stop-color="#FC7E2F" stop-opacity="0.8"/>
<stop offset="1" stop-color="#FFF3F5" stop-opacity="0.9"/>
</linearGradient>
</defs>
</svg>
