<svg width="20" height="20" viewBox="0 0 20 20" fill="none" xmlns="http://www.w3.org/2000/svg">
<path d="M11.1914 8.22266C10.7402 8.22266 10.3906 8.57227 10.3906 9.00391C10.3906 9.43555 10.7402 9.78516 11.1914 9.78516C11.6035 9.78516 11.9531 9.43555 11.9531 9.00391C11.9531 8.57227 11.6035 8.22266 11.1914 8.22266ZM5.72266 8.22266C5.27148 8.22266 4.92188 8.57227 4.92188 9.00391C4.92188 9.43555 5.27148 9.78516 5.72266 9.78516C6.13477 9.78516 6.48438 9.43555 6.48438 9.00391C6.48438 8.57227 6.13477 8.22266 5.72266 8.22266Z" fill="#DDDDDD"/>
<path d="M17.4609 6.73818C16.5215 5.44912 15.209 4.58779 13.7695 4.19912V4.20107C13.4355 3.82998 13.0586 3.48818 12.6367 3.18349C9.43944 0.859272 4.95115 1.56826 2.61717 4.76552C0.736312 7.36318 0.81639 10.8573 2.73436 13.3397L2.74998 15.9296C2.74998 15.9921 2.75975 16.0546 2.77928 16.1132C2.8828 16.4433 3.23436 16.6249 3.56248 16.5214L6.03514 15.7421C6.68944 15.9745 7.36522 16.1073 8.03709 16.1444L8.02733 16.1522C9.76756 17.4198 12.0488 17.8007 14.1406 17.1093L16.623 17.9179C16.6855 17.9374 16.75 17.9491 16.8164 17.9491C17.1621 17.9491 17.4414 17.6698 17.4414 17.3241V14.7069C19.1621 12.371 19.207 9.14248 17.4609 6.73818ZM6.30858 14.3554L6.0742 14.2577L4.14061 14.8632L4.12108 12.8319L3.96483 12.6561C2.31248 10.6405 2.20311 7.73623 3.74998 5.60537C5.6328 3.02333 9.24217 2.45302 11.8164 4.3163C14.3984 6.19326 14.9707 9.79677 13.1055 12.3632C11.541 14.5097 8.74022 15.3026 6.30858 14.3554ZM16.1719 14.0233L16.0156 14.2186L16.0351 16.2499L14.1211 15.6054L13.8867 15.703C12.793 16.1093 11.6269 16.1425 10.5469 15.8397L10.543 15.8378C11.9863 15.3944 13.2949 14.496 14.2383 13.203C15.7305 11.1464 15.9726 8.5624 15.1055 6.35927L15.1172 6.36708C15.5664 6.68935 15.9785 7.09169 16.3281 7.57802C17.7461 9.52333 17.666 12.1718 16.1719 14.0233Z" fill="#B4B3B3"/>
<path d="M8.45703 8.22266C8.00586 8.22266 7.65625 8.57227 7.65625 9.00391C7.65625 9.43555 8.00586 9.78516 8.45703 9.78516C8.86914 9.78516 9.21875 9.43555 9.21875 9.00391C9.21875 8.57227 8.86914 8.22266 8.45703 8.22266Z" fill="#A09D9D"/>
</svg>
