<svg width="330" height="65" viewBox="0 0 330 65" fill="none" xmlns="http://www.w3.org/2000/svg">
<rect width="330" height="65" rx="15" fill="#FFF2D7" fill-opacity="0.48"/>
<path d="M70.182 20.418H73.374V21.384H70.182V20.418ZM66.864 18.206H67.802V19.76C67.802 22.21 66.43 24.254 64.316 25.108L63.714 24.184C65.59 23.484 66.864 21.692 66.864 19.76V18.206ZM67.088 18.206H68.026V19.802C68.026 21.566 69.258 23.232 71.092 23.904L70.462 24.8C68.446 24.016 67.088 22.056 67.088 19.802V18.206ZM72.94 17.45H74.102V26.914H72.94V17.45ZM65.968 28.86H74.41V29.812H65.968V28.86ZM65.968 25.864H67.13V29.308H65.968V25.864ZM82.6129 19.48H86.2669V20.432H82.6129V19.48ZM82.6129 22H86.2949V22.938H82.6129V22ZM85.8189 17.436H86.9809V24.926H85.8189V17.436ZM77.1529 18.388H82.9349V24.016H77.1529V18.388ZM81.7869 19.326H78.2869V23.092H81.7869V19.326ZM82.8229 25.29C85.4269 25.29 87.0369 26.172 87.0369 27.684C87.0369 29.196 85.4269 30.064 82.8229 30.064C80.2049 30.064 78.5949 29.196 78.5949 27.684C78.5949 26.172 80.2049 25.29 82.8229 25.29ZM82.8229 26.214C80.9189 26.214 79.7569 26.76 79.7569 27.684C79.7569 28.608 80.9189 29.154 82.8229 29.154C84.7269 29.154 85.8889 28.608 85.8889 27.684C85.8889 26.76 84.7269 26.214 82.8229 26.214ZM98.1098 17.45H99.2718V26.942H98.1098V17.45ZM98.9078 21.594H101.148V22.574H98.9078V21.594ZM89.4858 18.976H96.9618V19.914H89.4858V18.976ZM93.2238 20.614C95.0158 20.614 96.2478 21.552 96.2478 22.98C96.2478 24.394 95.0158 25.332 93.2238 25.332C91.4178 25.332 90.1858 24.394 90.1858 22.98C90.1858 21.552 91.4178 20.614 93.2238 20.614ZM93.2238 21.524C92.0758 21.524 91.2918 22.098 91.2918 22.98C91.2918 23.848 92.0758 24.422 93.2238 24.422C94.3578 24.422 95.1418 23.848 95.1418 22.98C95.1418 22.098 94.3578 21.524 93.2238 21.524ZM92.6358 17.436H93.7978V19.466H92.6358V17.436ZM91.3898 28.86H99.8458V29.812H91.3898V28.86ZM91.3898 26.186H92.5518V29.266H91.3898V26.186ZM108.63 18.528H109.582V20.796C109.582 23.596 108.07 26.326 106.068 27.39L105.354 26.466C107.188 25.542 108.63 23.106 108.63 20.796V18.528ZM108.84 18.528H109.778V20.796C109.778 23.022 111.192 25.332 112.984 26.228L112.27 27.152C110.31 26.102 108.84 23.512 108.84 20.796V18.528ZM114.09 17.436H115.266V30.092H114.09V17.436ZM114.986 22.56H117.338V23.54H114.986V22.56ZM121.775 18.822H122.741V20.11C122.741 22.434 121.313 24.38 119.185 25.15L118.583 24.226C120.487 23.554 121.775 21.916 121.775 20.11V18.822ZM121.999 18.822H122.965V20.11C122.965 21.818 124.281 23.358 126.157 23.988L125.555 24.898C123.455 24.184 121.999 22.336 121.999 20.11V18.822ZM118.891 18.486H125.821V19.424H118.891V18.486ZM127.613 17.45H128.789V26.704H127.613V17.45ZM120.655 28.86H129.167V29.812H120.655V28.86ZM120.655 25.836H121.803V29.28H120.655V25.836ZM137.006 17.646C139.792 17.646 141.458 18.43 141.458 19.844C141.458 21.258 139.792 22.042 137.006 22.042C134.206 22.042 132.554 21.258 132.554 19.844C132.554 18.43 134.206 17.646 137.006 17.646ZM137.006 18.528C134.934 18.528 133.744 19.004 133.744 19.844C133.744 20.684 134.934 21.16 137.006 21.16C139.064 21.16 140.254 20.684 140.254 19.844C140.254 19.004 139.064 18.528 137.006 18.528ZM131.28 22.882H142.718V23.82H131.28V22.882ZM132.666 24.898H141.262V27.754H133.842V29.294H132.694V26.914H140.114V25.794H132.666V24.898ZM132.694 29.042H141.64V29.952H132.694V29.042ZM152.328 18.626H153.364V19.004C153.364 21.146 151.082 22.644 148.492 23.036L148.058 22.098C150.298 21.804 152.328 20.544 152.328 19.004V18.626ZM152.818 18.626H153.84V19.004C153.84 20.544 155.884 21.804 158.124 22.098L157.676 23.036C155.1 22.644 152.818 21.146 152.818 19.004V18.626ZM148.408 18.066H157.774V19.004H148.408V18.066ZM147.358 23.946H158.824V24.898H147.358V23.946ZM152.594 24.534H153.756V27.446H152.594V24.534ZM148.814 28.86H157.55V29.812H148.814V28.86ZM148.814 26.228H149.962V29.224H148.814V26.228ZM169.435 17.422H170.597V30.106H169.435V17.422ZM160.965 18.5H162.113V21.846H165.767V18.5H166.929V27.054H160.965V18.5ZM162.113 22.77V26.102H165.767V22.77H162.113ZM173.102 19.592H179.374V20.544H173.102V19.592ZM176.238 21.384C177.82 21.384 178.968 22.574 178.968 24.282C178.968 25.976 177.82 27.166 176.238 27.166C174.67 27.166 173.522 25.976 173.522 24.282C173.522 22.574 174.67 21.384 176.238 21.384ZM176.238 22.378C175.272 22.378 174.572 23.162 174.572 24.282C174.572 25.402 175.272 26.186 176.238 26.186C177.218 26.186 177.932 25.402 177.932 24.282C177.932 23.162 177.218 22.378 176.238 22.378ZM182.72 17.436H183.84V30.092H182.72V17.436ZM180.704 22.756H183.098V23.722H180.704V22.756ZM180.018 17.716H181.11V29.476H180.018V17.716ZM175.678 17.8H176.826V20.18H175.678V17.8ZM194.276 18.682H195.284V19.214C195.284 21.482 192.876 23.148 190.328 23.582L189.88 22.658C192.106 22.336 194.276 20.88 194.276 19.214V18.682ZM194.57 18.682H195.564V19.214C195.564 20.88 197.748 22.336 199.96 22.658L199.526 23.582C196.964 23.148 194.57 21.482 194.57 19.214V18.682ZM194.318 25.262H195.466V30.092H194.318V25.262ZM189.208 24.646H200.646V25.598H189.208V24.646ZM190.272 18.22H199.54V19.158H190.272V18.22ZM207.071 21.958H209.493V22.924H207.071V21.958ZM204.705 18.626H205.615V21.034C205.615 23.68 204.509 26.242 202.661 27.376L201.933 26.494C203.669 25.472 204.705 23.204 204.705 21.034V18.626ZM204.929 18.626H205.825V20.992C205.825 23.022 206.777 25.178 208.443 26.186L207.771 27.096C205.951 25.976 204.929 23.456 204.929 20.992V18.626ZM211.719 17.436H212.839V30.092H211.719V17.436ZM209.157 17.702H210.249V29.462H209.157V17.702ZM217.766 23.946H218.914V27.74H217.766V23.946ZM222.442 23.946H223.604V27.74H222.442V23.946ZM214.966 27.516H226.432V28.482H214.966V27.516ZM220.678 18.234C223.352 18.234 225.27 19.508 225.27 21.496C225.27 23.47 223.352 24.744 220.678 24.744C217.99 24.744 216.072 23.47 216.072 21.496C216.072 19.508 217.99 18.234 220.678 18.234ZM220.678 19.158C218.648 19.158 217.192 20.082 217.192 21.496C217.192 22.896 218.648 23.82 220.678 23.82C222.708 23.82 224.15 22.896 224.15 21.496C224.15 20.082 222.708 19.158 220.678 19.158ZM227.859 28.174C227.859 27.95 227.938 27.7587 228.097 27.6C228.255 27.432 228.451 27.348 228.685 27.348C228.927 27.348 229.133 27.432 229.301 27.6C229.469 27.7587 229.553 27.95 229.553 28.174C229.553 28.4073 229.469 28.6033 229.301 28.762C229.133 28.9207 228.927 29 228.685 29C228.451 29 228.255 28.9207 228.097 28.762C227.938 28.6033 227.859 28.4073 227.859 28.174ZM72.912 34.436H74.074V47.092H72.912V34.436ZM64.008 35.794H71.176V36.746H64.008V35.794ZM63.812 43.97L63.672 42.976C66.024 42.976 69.132 42.948 71.82 42.626L71.89 43.48C69.16 43.914 66.122 43.956 63.812 43.97ZM65.408 36.508H66.528V43.242H65.408V36.508ZM68.642 36.508H69.776V43.242H68.642V36.508ZM76.5649 41.926H88.0449V42.878H76.5649V41.926ZM81.6889 42.374H82.8369V47.092H81.6889V42.374ZM78.0069 34.94H79.1689V36.676H85.4269V34.94H86.5749V40.414H78.0069V34.94ZM79.1689 37.614V39.476H85.4269V37.614H79.1689ZM101.855 34.436H103.017V40.988H101.855V34.436ZM94.841 41.604H103.031V44.642H96.003V46.448H94.869V43.802H101.883V42.528H94.841V41.604ZM94.869 46.028H103.451V46.952H94.869V46.028ZM96.017 35.556H96.969V36.214C96.969 38.454 95.513 40.302 93.371 41.016L92.825 40.106C94.715 39.49 96.017 37.936 96.017 36.214V35.556ZM96.255 35.556H97.207V36.214C97.207 37.824 98.523 39.28 100.399 39.854L99.853 40.75C97.725 40.092 96.255 38.342 96.255 36.214V35.556ZM93.133 35.15H100.063V36.088H93.133V35.15ZM114.174 34.436H115.336V44.348H114.174V34.436ZM114.846 38.846H117.184V39.812H114.846V38.846ZM107.328 45.86H115.784V46.812H107.328V45.86ZM107.328 43.69H108.49V46.154H107.328V43.69ZM108.84 40.624H110.002V42.346H108.84V40.624ZM105.606 42.892L105.452 41.954C107.692 41.954 110.814 41.912 113.418 41.506L113.516 42.332C110.842 42.822 107.804 42.878 105.606 42.892ZM105.774 35.668H113.04V36.55H105.774V35.668ZM109.414 37.068C111.192 37.068 112.354 37.81 112.354 39.014C112.354 40.232 111.192 40.974 109.414 40.974C107.636 40.974 106.46 40.232 106.46 39.014C106.46 37.81 107.636 37.068 109.414 37.068ZM109.414 37.894C108.28 37.894 107.552 38.328 107.552 39.014C107.552 39.714 108.28 40.134 109.414 40.134C110.534 40.134 111.262 39.714 111.262 39.014C111.262 38.328 110.534 37.894 109.414 37.894ZM108.84 34.38H110.002V36.06H108.84V34.38ZM121.6 41.926H133.08V42.878H121.6V41.926ZM126.724 42.374H127.872V47.092H126.724V42.374ZM123.042 34.94H124.204V36.676H130.462V34.94H131.61V40.414H123.042V34.94ZM124.204 37.614V39.476H130.462V37.614H124.204ZM138.623 35.024C140.513 35.024 141.857 36.074 141.857 37.628C141.857 39.168 140.513 40.246 138.623 40.246C136.747 40.246 135.403 39.168 135.403 37.628C135.403 36.074 136.747 35.024 138.623 35.024ZM138.623 35.99C137.391 35.99 136.509 36.662 136.509 37.628C136.509 38.608 137.391 39.266 138.623 39.266C139.855 39.266 140.737 38.608 140.737 37.628C140.737 36.662 139.855 35.99 138.623 35.99ZM138.105 41.646H139.267V46.7H138.105V41.646ZM143.705 34.436H144.853V47.106H143.705V34.436ZM134.619 42.276L134.465 41.296C136.817 41.296 140.023 41.268 142.809 40.848L142.893 41.716C140.037 42.234 136.929 42.276 134.619 42.276ZM147.358 40.316H158.838V41.198H147.358V40.316ZM148.716 42.22H157.396V44.922H149.906V46.406H148.758V44.124H156.262V43.046H148.716V42.22ZM148.758 46.098H157.802V46.938H148.758V46.098ZM148.814 34.8H157.354V37.432H149.99V38.804H148.842V36.648H156.22V35.626H148.814V34.8ZM148.842 38.524H157.592V39.364H148.842V38.524ZM172.004 34.422H173.18V47.092H172.004V34.422ZM172.858 39.56H175.196V40.526H172.858V39.56ZM168.77 35.794H169.904C169.904 39.392 168.252 42.64 164.164 44.698L163.52 43.802C167.02 42.024 168.77 39.322 168.77 35.976V35.794ZM164.108 35.794H169.372V36.746H164.108V35.794ZM185.107 34.436H186.255V47.092H185.107V34.436ZM185.891 39.644H188.145V40.624H185.891V39.644ZM179.045 35.794H180.109C180.109 38.846 179.465 41.8 177.197 44.25L176.259 43.592C178.345 41.422 179.045 38.79 179.045 35.92V35.794ZM176.665 35.794H179.479V36.76H176.665V35.794ZM182.489 35.794H183.567C183.567 38.86 183.133 42.332 180.809 45.09L179.871 44.446C182.013 41.968 182.489 38.832 182.489 35.906V35.794ZM180.515 35.794H182.965V36.76H180.515V35.794ZM198.392 34.422H199.554V47.106H198.392V34.422ZM192.876 35.402C194.752 35.402 196.096 37.124 196.096 39.812C196.096 42.514 194.752 44.236 192.876 44.236C191.014 44.236 189.67 42.514 189.67 39.812C189.67 37.124 191.014 35.402 192.876 35.402ZM192.876 36.452C191.644 36.452 190.776 37.768 190.776 39.812C190.776 41.87 191.644 43.214 192.876 43.214C194.122 43.214 194.976 41.87 194.976 39.812C194.976 37.768 194.122 36.452 192.876 36.452ZM207.211 39.35H209.605V40.316H207.211V39.35ZM211.719 34.436H212.839V47.092H211.719V34.436ZM209.213 34.702H210.319V46.462H209.213V34.702ZM204.929 35.486C206.567 35.486 207.631 37.18 207.631 39.896C207.631 42.612 206.567 44.306 204.929 44.306C203.291 44.306 202.241 42.612 202.241 39.896C202.241 37.18 203.291 35.486 204.929 35.486ZM204.929 36.564C203.935 36.564 203.305 37.852 203.305 39.896C203.305 41.94 203.935 43.228 204.929 43.228C205.937 43.228 206.567 41.94 206.567 39.896C206.567 37.852 205.937 36.564 204.929 36.564ZM221.28 38.72H224.808V39.672H221.28V38.72ZM218.228 35.528H219.18V37.782C219.18 40.624 217.682 43.34 215.68 44.418L214.938 43.494C216.8 42.57 218.228 40.134 218.228 37.782V35.528ZM218.452 35.528H219.39V37.782C219.39 40.092 220.818 42.388 222.652 43.256L221.966 44.194C219.922 43.158 218.452 40.554 218.452 37.782V35.528ZM224.234 34.422H225.382V47.106H224.234V34.422ZM234.418 36.172H235.3V36.354C235.3 37.894 233.858 39.084 231.772 39.448L231.366 38.608C233.102 38.314 234.418 37.432 234.418 36.354V36.172ZM234.67 36.172H235.552V36.354C235.552 37.376 236.882 38.202 238.59 38.482L238.184 39.336C236.126 38.972 234.67 37.838 234.67 36.354V36.172ZM231.646 35.5H238.31V36.368H231.646V35.5ZM234.404 38.888H235.566V40.68H234.404V38.888ZM234.404 34.408H235.552V35.92H234.404V34.408ZM232.654 42.164H240.844V44.922H233.816V46.462H232.682V44.082H239.71V43.046H232.654V42.164ZM232.682 46.07H241.334V46.952H232.682V46.07ZM239.682 34.436H240.844V41.618H239.682V34.436ZM240.354 37.46H242.692V38.426H240.354V37.46ZM231.156 41.212L231.016 40.302C233.284 40.302 236.336 40.288 238.898 39.924L238.996 40.736C236.35 41.184 233.382 41.212 231.156 41.212ZM249.677 36.256H253.541V37.208H249.677V36.256ZM249.677 39.168H253.541V40.134H249.677V39.168ZM247.367 35.178C249.229 35.178 250.629 36.438 250.629 38.188C250.629 39.952 249.229 41.198 247.367 41.198C245.491 41.198 244.105 39.952 244.105 38.188C244.105 36.438 245.491 35.178 247.367 35.178ZM247.367 36.172C246.135 36.172 245.225 36.998 245.225 38.188C245.225 39.378 246.135 40.204 247.367 40.204C248.599 40.204 249.523 39.378 249.523 38.188C249.523 36.998 248.599 36.172 247.367 36.172ZM253.163 34.436H254.325V41.926H253.163V34.436ZM250.167 42.22C252.771 42.22 254.381 43.116 254.381 44.642C254.381 46.182 252.771 47.064 250.167 47.064C247.549 47.064 245.939 46.182 245.939 44.642C245.939 43.116 247.549 42.22 250.167 42.22ZM250.167 43.144C248.249 43.144 247.087 43.704 247.087 44.642C247.087 45.594 248.249 46.154 250.167 46.154C252.071 46.154 253.233 45.594 253.233 44.642C253.233 43.704 252.071 43.144 250.167 43.144ZM256.774 36.592H263.046V37.544H256.774V36.592ZM259.91 38.384C261.492 38.384 262.64 39.574 262.64 41.282C262.64 42.976 261.492 44.166 259.91 44.166C258.342 44.166 257.194 42.976 257.194 41.282C257.194 39.574 258.342 38.384 259.91 38.384ZM259.91 39.378C258.944 39.378 258.244 40.162 258.244 41.282C258.244 42.402 258.944 43.186 259.91 43.186C260.89 43.186 261.604 42.402 261.604 41.282C261.604 40.162 260.89 39.378 259.91 39.378ZM266.392 34.436H267.512V47.092H266.392V34.436ZM264.376 39.756H266.77V40.722H264.376V39.756ZM263.69 34.716H264.782V46.476H263.69V34.716ZM259.35 34.8H260.498V37.18H259.35V34.8ZM277.948 35.682H278.956V36.214C278.956 38.482 276.548 40.148 274 40.582L273.552 39.658C275.778 39.336 277.948 37.88 277.948 36.214V35.682ZM278.242 35.682H279.236V36.214C279.236 37.88 281.42 39.336 283.632 39.658L283.198 40.582C280.636 40.148 278.242 38.482 278.242 36.214V35.682ZM277.99 42.262H279.138V47.092H277.99V42.262ZM272.88 41.646H284.318V42.598H272.88V41.646ZM273.944 35.22H283.212V36.158H273.944V35.22ZM290.743 38.958H293.165V39.924H290.743V38.958ZM288.377 35.626H289.287V38.034C289.287 40.68 288.181 43.242 286.333 44.376L285.605 43.494C287.341 42.472 288.377 40.204 288.377 38.034V35.626ZM288.601 35.626H289.497V37.992C289.497 40.022 290.449 42.178 292.115 43.186L291.443 44.096C289.623 42.976 288.601 40.456 288.601 37.992V35.626ZM295.391 34.436H296.511V47.092H295.391V34.436ZM292.829 34.702H293.921V46.462H292.829V34.702ZM301.438 40.946H302.586V44.74H301.438V40.946ZM306.114 40.946H307.276V44.74H306.114V40.946ZM298.638 44.516H310.104V45.482H298.638V44.516ZM304.35 35.234C307.024 35.234 308.942 36.508 308.942 38.496C308.942 40.47 307.024 41.744 304.35 41.744C301.662 41.744 299.744 40.47 299.744 38.496C299.744 36.508 301.662 35.234 304.35 35.234ZM304.35 36.158C302.32 36.158 300.864 37.082 300.864 38.496C300.864 39.896 302.32 40.82 304.35 40.82C306.38 40.82 307.822 39.896 307.822 38.496C307.822 37.082 306.38 36.158 304.35 36.158ZM311.53 45.174C311.53 44.95 311.61 44.7587 311.768 44.6C311.927 44.432 312.123 44.348 312.356 44.348C312.599 44.348 312.804 44.432 312.972 44.6C313.14 44.7587 313.224 44.95 313.224 45.174C313.224 45.4073 313.14 45.6033 312.972 45.762C312.804 45.9207 312.599 46 312.356 46C312.123 46 311.927 45.9207 311.768 45.762C311.61 45.6033 311.53 45.4073 311.53 45.174Z" fill="#6F4E37"/>
<path d="M27.6299 51.5938H39.5639M20.4702 23.524C22.17 17.179 27.0277 13.4062 33.5969 13.4062C40.1661 13.4062 45.0238 17.178 46.7236 23.524C48.4235 29.87 45.2529 36.3755 39.5639 39.6606V46.8203H27.6299V39.6606C20.1392 36.0828 18.7694 29.869 20.4702 23.524Z" stroke="#6F4E37" stroke-opacity="0.67" stroke-width="2.5" stroke-linecap="round" stroke-linejoin="round"/>
<path d="M24.9225 27.8549C24.9225 27.8549 24.1528 19.435 34.6045 18.0808" stroke="#6F4E37" stroke-opacity="0.67" stroke-width="2.5" stroke-linecap="round" stroke-linejoin="round"/>
</svg>
