<svg width="330" height="65" viewBox="0 0 330 65" fill="none" xmlns="http://www.w3.org/2000/svg">
<rect width="330" height="65" rx="15" fill="#FFF2D7" fill-opacity="0.48"/>
<path d="M27.6299 51.5938H39.5639M20.4702 23.524C22.17 17.179 27.0277 13.4062 33.5969 13.4062C40.1661 13.4062 45.0238 17.178 46.7236 23.524C48.4235 29.87 45.2529 36.3755 39.5639 39.6606V46.8203H27.6299V39.6606C20.1392 36.0828 18.7694 29.869 20.4702 23.524Z" stroke="#6F4E37" stroke-opacity="0.67" stroke-width="2.5" stroke-linecap="round" stroke-linejoin="round"/>
<path d="M24.9225 27.8549C24.9225 27.8549 24.1528 19.435 34.6045 18.0808" stroke="#6F4E37" stroke-opacity="0.67" stroke-width="2.5" stroke-linecap="round" stroke-linejoin="round"/>
<path d="M73.3713 25.422H74.5333V38.106H73.3713V25.422ZM64.9013 26.5H66.0493V29.846H69.7033V26.5H70.8653V35.054H64.9013V26.5ZM66.0493 30.77V34.102H69.7033V30.77H66.0493ZM77.0522 31.568H88.4902V32.506H77.0522V31.568ZM82.1902 33.472H83.1842V33.864C83.1842 36.132 80.9722 37.616 78.3822 38.05L77.9342 37.126C80.2442 36.804 82.1902 35.544 82.1902 33.864V33.472ZM82.3722 33.472H83.3662V33.864C83.3662 35.544 85.2982 36.804 87.6082 37.126L87.1602 38.05C84.5702 37.616 82.3722 36.132 82.3722 33.864V33.472ZM82.1902 25.646H83.1842V26.206C83.1842 28.46 80.7622 30.112 78.1722 30.532L77.7382 29.608C79.9922 29.3 82.1902 27.858 82.1902 26.206V25.646ZM82.3722 25.646H83.3662V26.206C83.3662 27.83 85.5922 29.3 87.8182 29.608L87.3842 30.532C84.8222 30.112 82.3722 28.404 82.3722 26.206V25.646ZM98.5971 25.45H99.7591V34.942H98.5971V25.45ZM99.3951 29.594H101.635V30.574H99.3951V29.594ZM89.9731 26.976H97.4491V27.914H89.9731V26.976ZM93.7111 28.614C95.5031 28.614 96.7351 29.552 96.7351 30.98C96.7351 32.394 95.5031 33.332 93.7111 33.332C91.9051 33.332 90.6731 32.394 90.6731 30.98C90.6731 29.552 91.9051 28.614 93.7111 28.614ZM93.7111 29.524C92.5631 29.524 91.7791 30.098 91.7791 30.98C91.7791 31.848 92.5631 32.422 93.7111 32.422C94.8451 32.422 95.6291 31.848 95.6291 30.98C95.6291 30.098 94.8451 29.524 93.7111 29.524ZM93.1231 25.436H94.2851V27.466H93.1231V25.436ZM91.8771 36.86H100.333V37.812H91.8771V36.86ZM91.8771 34.186H93.0391V37.266H91.8771V34.186ZM109.117 26.528H110.069V28.796C110.069 31.596 108.557 34.326 106.555 35.39L105.841 34.466C107.675 33.542 109.117 31.106 109.117 28.796V26.528ZM109.327 26.528H110.265V28.796C110.265 31.022 111.679 33.332 113.471 34.228L112.757 35.152C110.797 34.102 109.327 31.512 109.327 28.796V26.528ZM114.577 25.436H115.753V38.092H114.577V25.436ZM115.473 30.56H117.825V31.54H115.473V30.56ZM119.308 34.06H120.12C121.562 34.06 122.906 34.018 124.558 33.738L124.67 34.69C122.948 34.984 121.604 35.04 120.12 35.04H119.308V34.06ZM119.28 26.808H123.648V31.232H120.442V34.396H119.308V30.294H122.528V27.76H119.28V26.808ZM128.52 25.436H129.64V38.092H128.52V25.436ZM124.362 28.726H126.56V29.692H124.362V28.726ZM126 25.674H127.106V37.448H126V25.674ZM124.362 31.876H126.56V32.842H124.362V31.876ZM131.767 31.316H143.247V32.198H131.767V31.316ZM133.125 33.22H141.805V35.922H134.315V37.406H133.167V35.124H140.671V34.046H133.125V33.22ZM133.167 37.098H142.211V37.938H133.167V37.098ZM133.223 25.8H141.763V28.432H134.399V29.804H133.251V27.648H140.629V26.626H133.223V25.8ZM133.251 29.524H142.001V30.364H133.251V29.524ZM153.109 26.752H154.229C154.229 30.406 152.969 33.766 148.517 36.006L147.859 35.11C151.765 33.15 153.109 30.336 153.109 26.878V26.752ZM148.545 26.752H153.809V27.69H148.545V26.752ZM153.039 29.888V30.77L148.097 31.232L147.901 30.224L153.039 29.888ZM157.099 25.436H158.261V38.092H157.099V25.436ZM154.201 30.504H157.659V31.47H154.201V30.504ZM163.636 33.066H164.798V38.19H163.636V33.066ZM168.13 33.066H169.292V38.19H168.13V33.066ZM160.724 32.758H172.204V33.71H160.724V32.758ZM162.18 26.122H170.72V31.05H162.18V26.122ZM169.586 27.046H163.328V30.126H169.586V27.046ZM182.815 25.436H183.977V38.092H182.815V25.436ZM174.415 26.668H175.563V34.508H174.415V26.668ZM174.415 33.822H175.451C177.369 33.822 179.371 33.682 181.513 33.234L181.653 34.228C179.455 34.676 177.453 34.83 175.451 34.83H174.415V33.822ZM187.294 34.088H188.302C190.668 34.088 192.32 34.018 194.266 33.696L194.378 34.634C192.39 34.984 190.71 35.054 188.302 35.054H187.294V34.088ZM187.294 26.584H193.426V27.55H188.442V34.424H187.294V26.584ZM188.162 30.126H192.964V31.064H188.162V30.126ZM195.708 25.436H196.87V38.092H195.708V25.436ZM204.499 30.35H206.893V31.316H204.499V30.35ZM209.007 25.436H210.127V38.092H209.007V25.436ZM206.501 25.702H207.607V37.462H206.501V25.702ZM202.217 26.486C203.855 26.486 204.919 28.18 204.919 30.896C204.919 33.612 203.855 35.306 202.217 35.306C200.579 35.306 199.529 33.612 199.529 30.896C199.529 28.18 200.579 26.486 202.217 26.486ZM202.217 27.564C201.223 27.564 200.593 28.852 200.593 30.896C200.593 32.94 201.223 34.228 202.217 34.228C203.225 34.228 203.855 32.94 203.855 30.896C203.855 28.852 203.225 27.564 202.217 27.564ZM218.568 29.72H222.096V30.672H218.568V29.72ZM215.516 26.528H216.468V28.782C216.468 31.624 214.97 34.34 212.968 35.418L212.226 34.494C214.088 33.57 215.516 31.134 215.516 28.782V26.528ZM215.74 26.528H216.678V28.782C216.678 31.092 218.106 33.388 219.94 34.256L219.254 35.194C217.21 34.158 215.74 31.554 215.74 28.782V26.528ZM221.522 25.422H222.67V38.106H221.522V25.422ZM231.482 27.522H232.434V28.068C232.434 30.224 231.006 31.974 228.878 32.646L228.332 31.736C230.208 31.162 231.482 29.72 231.482 28.068V27.522ZM231.692 27.522H232.644V28.068C232.644 29.58 233.876 30.952 235.738 31.498L235.192 32.394C233.078 31.764 231.692 30.084 231.692 28.068V27.522ZM228.682 26.906H235.43V27.844H228.682V26.906ZM231.482 25.38H232.644V27.298H231.482V25.38ZM236.984 25.436H238.146V32.786H236.984V25.436ZM237.824 28.558H240.022V29.524H237.824V28.558ZM233.61 33.836H234.604V34.172C234.604 36.16 232.504 37.63 230.026 38.05L229.578 37.154C231.762 36.818 233.61 35.586 233.61 34.172V33.836ZM233.834 33.836H234.828V34.172C234.828 35.558 236.704 36.818 238.846 37.168L238.412 38.064C235.934 37.644 233.834 36.118 233.834 34.172V33.836ZM230.068 33.472H238.37V34.41H230.068V33.472ZM244.571 26.402C246.433 26.402 247.749 28.124 247.749 30.812C247.749 33.514 246.433 35.236 244.571 35.236C242.709 35.236 241.393 33.514 241.393 30.812C241.393 28.124 242.709 26.402 244.571 26.402ZM244.571 27.452C243.339 27.452 242.499 28.768 242.499 30.812C242.499 32.87 243.339 34.214 244.571 34.214C245.789 34.214 246.643 32.87 246.643 30.812C246.643 28.768 245.789 27.452 244.571 27.452ZM249.765 25.436H250.941V38.092H249.765V25.436ZM250.661 30.49H253.013V31.47H250.661V30.49ZM254.09 35.516H265.556V36.482H254.09V35.516ZM259.214 32.492H260.376V35.796H259.214V32.492ZM255.434 26.332H256.582V28.586H263.036V26.332H264.184V32.8H255.434V26.332ZM256.582 29.524V31.848H263.036V29.524H256.582ZM271.953 29.958H274.375V30.924H271.953V29.958ZM269.587 26.626H270.497V29.034C270.497 31.68 269.391 34.242 267.543 35.376L266.815 34.494C268.551 33.472 269.587 31.204 269.587 29.034V26.626ZM269.811 26.626H270.707V28.992C270.707 31.022 271.659 33.178 273.325 34.186L272.653 35.096C270.833 33.976 269.811 31.456 269.811 28.992V26.626ZM276.601 25.436H277.721V38.092H276.601V25.436ZM274.039 25.702H275.131V37.462H274.039V25.702ZM282.647 31.946H283.795V35.74H282.647V31.946ZM287.323 31.946H288.485V35.74H287.323V31.946ZM279.847 35.516H291.313V36.482H279.847V35.516ZM285.559 26.234C288.233 26.234 290.151 27.508 290.151 29.496C290.151 31.47 288.233 32.744 285.559 32.744C282.871 32.744 280.953 31.47 280.953 29.496C280.953 27.508 282.871 26.234 285.559 26.234ZM285.559 27.158C283.529 27.158 282.073 28.082 282.073 29.496C282.073 30.896 283.529 31.82 285.559 31.82C287.589 31.82 289.031 30.896 289.031 29.496C289.031 28.082 287.589 27.158 285.559 27.158ZM293.048 26.808L294.476 26.654L294.238 34.452H293.328L293.048 26.808ZM292.922 36.174C292.922 35.95 293.002 35.7587 293.16 35.6C293.319 35.432 293.515 35.348 293.748 35.348C293.991 35.348 294.196 35.432 294.364 35.6C294.532 35.7587 294.616 35.95 294.616 36.174C294.616 36.4073 294.532 36.6033 294.364 36.762C294.196 36.9207 293.991 37 293.748 37C293.515 37 293.319 36.9207 293.16 36.762C293.002 36.6033 292.922 36.4073 292.922 36.174Z" fill="#6F4E37"/>
</svg>
