<svg width="25" height="24" viewBox="0 0 25 24" fill="none" xmlns="http://www.w3.org/2000/svg">
<path d="M15.5 6C15.5 7.79493 14.0449 9.25 12.25 9.25C10.4551 9.25 9 7.79493 9 6C9 4.20507 10.4551 2.75 12.25 2.75C14.0449 2.75 15.5 4.20507 15.5 6Z" stroke="#A5A5A5" stroke-width="1.5"/>
<path d="M18.5 17C18.5 18.0756 17.8909 19.1202 16.7638 19.9252C15.6382 20.7293 14.0447 21.25 12.25 21.25C10.4553 21.25 8.86181 20.7293 7.73618 19.9252C6.60911 19.1202 6 18.0756 6 17C6 15.9244 6.60911 14.8798 7.73618 14.0748C8.86181 13.2707 10.4553 12.75 12.25 12.75C14.0447 12.75 15.6382 13.2707 16.7638 14.0748C17.8909 14.8798 18.5 15.9244 18.5 17Z" stroke="#A5A5A5" stroke-width="1.5"/>
</svg>
