<svg width="25" height="24" viewBox="0 0 25 24" fill="none" xmlns="http://www.w3.org/2000/svg">
<path d="M7.25 8C7.25 7.73478 7.35535 7.48043 7.54289 7.29289C7.73043 7.10535 7.98478 7 8.25 7H16.25C16.5152 7 16.7696 7.10535 16.9571 7.29289C17.1446 7.48043 17.25 7.73478 17.25 8C17.25 8.26521 17.1446 8.51957 16.9571 8.7071C16.7696 8.89464 16.5152 9 16.25 9H8.25C7.98478 9 7.73043 8.89464 7.54289 8.7071C7.35535 8.51957 7.25 8.26521 7.25 8ZM8.25 13H16.25C16.5152 13 16.7696 12.8946 16.9571 12.7071C17.1446 12.5196 17.25 12.2652 17.25 12C17.25 11.7348 17.1446 11.4804 16.9571 11.2929C16.7696 11.1054 16.5152 11 16.25 11H8.25C7.98478 11 7.73043 11.1054 7.54289 11.2929C7.35535 11.4804 7.25 11.7348 7.25 12C7.25 12.2652 7.35535 12.5196 7.54289 12.7071C7.73043 12.8946 7.98478 13 8.25 13ZM12.25 15H8.25C7.98478 15 7.73043 15.1053 7.54289 15.2929C7.35535 15.4804 7.25 15.7348 7.25 16C7.25 16.2652 7.35535 16.5196 7.54289 16.7071C7.73043 16.8946 7.98478 17 8.25 17H12.25C12.5152 17 12.7696 16.8946 12.9571 16.7071C13.1446 16.5196 13.25 16.2652 13.25 16C13.25 15.7348 13.1446 15.4804 12.9571 15.2929C12.7696 15.1053 12.5152 15 12.25 15ZM24.25 2V15.5862C24.2508 15.849 24.1994 16.1093 24.0988 16.352C23.9981 16.5947 23.8503 16.8149 23.6637 17L17.25 23.4137C17.0649 23.6003 16.8447 23.7481 16.602 23.8488C16.3593 23.9494 16.099 24.0008 15.8362 24H2.25C1.71957 24 1.21086 23.7893 0.835786 23.4142C0.460714 23.0391 0.25 22.5304 0.25 22V2C0.25 1.46957 0.460714 0.960859 0.835786 0.585786C1.21086 0.210714 1.71957 0 2.25 0H22.25C22.7804 0 23.2891 0.210714 23.6642 0.585786C24.0393 0.960859 24.25 1.46957 24.25 2ZM2.25 22H15.25V16C15.25 15.7348 15.3553 15.4804 15.5429 15.2929C15.7304 15.1053 15.9848 15 16.25 15H22.25V2H2.25V22ZM17.25 17V20.5875L20.8362 17H17.25Z" fill="#A5A5A5"/>
</svg>
