<svg width="26" height="25" viewBox="0 0 26 25" fill="none" xmlns="http://www.w3.org/2000/svg">
<path d="M3.37494 13.5417H4.41661V20.8333C4.41661 21.9823 5.35098 22.9167 6.49994 22.9167H18.9999C20.1489 22.9167 21.0833 21.9823 21.0833 20.8333V13.5417H22.1249C22.3309 13.5416 22.5323 13.4805 22.7035 13.366C22.8748 13.2516 23.0083 13.0889 23.0871 12.8986C23.1659 12.7083 23.1866 12.4989 23.1464 12.2968C23.1062 12.0948 23.007 11.9092 22.8614 11.7635L13.4864 2.38854C13.2911 2.19326 13.0262 2.08356 12.7499 2.08356C12.4737 2.08356 12.2088 2.19326 12.0135 2.38854L2.63848 11.7635C2.49285 11.9092 2.39367 12.0948 2.3535 12.2968C2.31333 12.4989 2.33395 12.7083 2.41278 12.8986C2.4916 13.0889 2.62508 13.2516 2.79634 13.366C2.9676 13.4805 3.16895 13.5416 3.37494 13.5417ZM10.6666 20.8333V15.625H14.8333V20.8333H10.6666ZM12.7499 4.59792L18.9999 10.8479V15.625L19.001 20.8333H16.9166V15.625C16.9166 14.476 15.9822 13.5417 14.8333 13.5417H10.6666C9.51765 13.5417 8.58327 14.476 8.58327 15.625V20.8333H6.49994V10.8479L12.7499 4.59792Z" fill="#FC7E2F"/>
</svg>
