<svg width="26" height="25" viewBox="0 0 26 25" fill="none" xmlns="http://www.w3.org/2000/svg">
<path d="M16.6353 6.25001C16.6353 8.11973 15.1196 9.63543 13.2499 9.63543C11.3802 9.63543 9.8645 8.11973 9.8645 6.25001C9.8645 4.38029 11.3802 2.86459 13.2499 2.86459C15.1196 2.86459 16.6353 4.38029 16.6353 6.25001Z" stroke="#A5A5A5" stroke-width="1.5"/>
<path d="M19.7603 17.7083C19.7603 18.8287 19.1259 19.9169 17.9518 20.7554C16.7793 21.593 15.1194 22.1354 13.2499 22.1354C11.3804 22.1354 9.72055 21.593 8.54802 20.7554C7.37399 19.9169 6.7395 18.8287 6.7395 17.7083C6.7395 16.5879 7.37399 15.4998 8.54802 14.6612C9.72055 13.8236 11.3804 13.2812 13.2499 13.2812C15.1194 13.2812 16.7793 13.8236 17.9518 14.6612C19.1259 15.4998 19.7603 16.5879 19.7603 17.7083Z" stroke="#A5A5A5" stroke-width="1.5"/>
</svg>
